<?xml version="1.0" encoding="utf-8"?>
<!-- Generator: Adobe Illustrator 27.5.0, SVG Export Plug-In . SVG Version: 6.00 Build 0)  -->
<svg version="1.1" xmlns="http://www.w3.org/2000/svg" xmlns:xlink="http://www.w3.org/1999/xlink" x="0px" y="0px"
	 viewBox="0 0 800 800" style="enable-background:new 0 0 800 800;" xml:space="preserve">
<g id="Layer_1">
</g>
<g id="Layer_3">
</g>
<g id="Layer_2">
	<g>
		<g>
			<path id="XMLID_5_" style="fill:#F49D3D;" d="M458.636,546.727c-3.659,4.283-15.011,16.651-30.278,25.016
				c-1.894,3.68-3.854,7.201-5.961,10.452c-0.723,1.127-1.436,2.239-2.138,3.334c-0.752,1.062-1.493,2.108-2.222,3.136
				c-1.414,2.089-2.994,3.949-4.412,5.808c-0.719,0.922-1.494,1.767-2.195,2.641c-0.718,0.859-1.4,1.717-2.177,2.452
				c-0.996,0.948-1.939,1.873-2.871,2.747c0.154,3.947-0.037,7.801-0.732,11.351c-1.925,9.834-5.547,17.041-8.458,22.832
				c-2.844,5.659-4.899,9.748-3.414,12.836c2.717,5.645,9.943,4.565,11.197,4.331c-1.902-1.247-3.385-2.28-4.406-2.979
				c-1.053-0.734-1.615-1.126-1.615-1.126s2.472,1.173,6.797,3.225c2.167,1.006,4.799,2.228,7.818,3.629
				c1.514,0.684,3.126,1.413,4.825,2.18c1.7,0.761,3.377,1.774,5.21,2.672c0.403,0.2,0.823,0.408,1.235,0.612
				c18.543,1.282,34.403,3.081,39.698,3.711c3.746-0.794,7.795-1.248,12.171-1.28c4.53-7.323,11.742-15.422,22.833-19.984
				c-18.426-1.529-75.189-6.192-75.189-6.192c2.602-0.237,5.357-0.406,8.216-0.518c0.066-18.573,5.983-31.36,9.762-37.64
				l-4.305,0.584c0.228-0.135,27.229-17.173,40.494-49.472c0.557-1.356,1.025-2.72,1.454-4.088c-2.565,0.366-5.722,0.53-8.962,0.53
				C466.601,547.527,462.049,547.224,458.636,546.727z"/>
			<path id="XMLID_10_" style="fill:#F49D3D;" d="M497.555,473.636c1.808,3.023,7.991,13.501,9.578,17.992
				c0.598-0.235,1.111-0.344,1.481-0.393c0.489-0.061,0.744-0.011,0.744-0.011s-0.248,0.077-0.64,0.32
				c-0.35,0.211-0.802,0.581-1.287,1.087c0.006,0.029,0.016,0.063,0.022,0.091l-0.135,0.027c-0.023,0.025-0.045,0.045-0.068,0.071
				c-0.557,0.61-1.107,1.458-1.64,2.459c-0.276,0.491-0.503,1.068-0.755,1.646c-0.21,0.613-0.708,1.086-0.964,1.754
				c-0.655,1.241-1.209,2.694-1.76,4.242c-0.544,1.589-1.104,3.313-1.653,5.062c-0.556,1.76-1.092,3.581-1.562,5.433
				c-0.466,1.849-0.873,3.738-1.04,5.582c-0.157,1.823-0.095,3.677,0.606,4.958c0.069,0.174,0.165,0.324,0.278,0.458l0.153,0.214
				l0.065,0.095l0.056,0.055l0.129,0.128l0.06,0.058l0.008-0.009c0.015-0.012-0.011-0.003,0.014,0.001
				c0.043,0.019,0.064,0.026,0.101,0.03c0.065,0.007,0.268-0.022,0.536-0.174c0.266-0.154,0.561-0.368,0.849-0.629
				c1.167-1.072,2.19-2.521,3.097-3.884c0.911-1.382,1.719-2.752,2.469-4.03c0.186-0.32,0.376-0.632,0.541-0.951
				c0.151-0.326,0.333-0.628,0.572-0.889c0.236-0.271,0.465-0.536,0.688-0.793c0.225-0.243,0.444-0.479,0.656-0.707
				c0.883-0.948,1.715-1.666,2.434-2.229c1.447-1.118,2.42-1.475,2.42-1.475s-0.182,0.178-0.467,0.55
				c-0.288,0.37-0.664,0.944-1.104,1.679c-0.431,0.738-0.907,1.68-1.379,2.735c-0.119,0.277-0.242,0.564-0.369,0.858
				c-0.113,0.29-0.23,0.589-0.35,0.896c-0.11,0.321-0.281,0.618-0.49,0.906c-0.196,0.295-0.373,0.614-0.563,0.935
				c-0.756,1.289-1.586,2.699-2.553,4.166c-0.987,1.462-2.026,3.005-3.598,4.465c-0.403,0.361-0.86,0.715-1.415,1.029
				c-0.554,0.303-1.292,0.59-2.187,0.534c-0.441-0.032-0.887-0.161-1.273-0.362c-0.198-0.091-0.402-0.251-0.591-0.393l-0.14-0.113
				l-0.071-0.068l-0.129-0.128l-0.21-0.216l-0.139-0.186l-0.275-0.376c-0.193-0.248-0.355-0.509-0.479-0.787
				c-0.065-0.118-0.11-0.24-0.166-0.36c-0.026,0.251-0.052,0.502-0.052,0.734c0,2.502,6.456,11.307,9.594,11.503
				c3.524,0.206,13.764-3.504,14.163-7.889c0.163-1.793,1.232-5.049,2.586-9.171c2.972-9.052,7.463-22.73,4.566-28.522
				c-3.729-7.457-11.216-26.097-13.862-32.744C506.713,464.253,501.594,469.372,497.555,473.636z"/>
			<path id="XMLID_7_" style="fill:#F49D3D;" d="M483.666,431.065c0.849-1.028,1.666-2.075,2.447-3.141
				C485.413,428.774,484.576,429.83,483.666,431.065z"/>
			<path id="XMLID_13_" style="fill:#FFF4EC;" d="M425.392,497.462c3.322,4.846,6.275,10.214,8.48,16.009
				c2.225,5.778,3.765,11.962,4.238,18.266c0.312,3.145,0.227,6.314,0.063,9.454c-0.291,3.131-0.69,6.249-1.432,9.268
				c-0.182,0.756-0.343,1.512-0.543,2.263c-0.225,0.749-0.449,1.496-0.673,2.242c-0.418,1.527-0.984,2.873-1.483,4.283
				c-0.539,1.481-1.176,2.777-1.753,4.16c-0.465,1.057-0.915,2.111-1.379,3.154c12.607-7.514,20.973-16.84,24.048-20.581
				c-0.622-0.186-1.118-0.382-1.429-0.59c-2.979-1.986-3.861-10.315-3.138-14.952c0.669-4.291,2.485-5.67,3.891-6.072
				c1.461-0.415,2.896-0.251,4.149,0.483c1.858,1.087,2.954,3.174,3.532,4.653c0.034-0.104,0.081-0.194,0.111-0.302
				c0.224-0.832,0.309-1.772,0.303-2.784c-0.016-1.015-0.164-2.101-0.353-3.233c-0.391-2.268-1.042-4.711-1.593-7.249
				c-0.264-1.272-0.521-2.567-0.664-3.891c-0.075-0.671-0.128-1.307-0.13-2.023c-0.01-0.368,0.003-0.681,0.02-0.979l0.011-0.229
				c0.01-0.159,0.022-0.188,0.033-0.287l0.068-0.495c0.128-1.319,0.578-2.553,1.053-3.659c0.525-1.096,1.17-2.045,1.873-2.809
				c1.239-1.377,2.171-2.128,3.101-2.608c-0.164-0.088-0.316-0.167-0.487-0.26c-1.7-0.91-3.766-2.019-6.094-3.366
				c-1.175-0.656-2.401-1.395-3.706-2.158c-0.659-0.372-1.295-0.811-1.915-1.307c-0.631-0.479-1.292-0.947-1.962-1.432
				c-2.67-1.955-5.538-4.111-8.482-6.517c-2.948-2.399-6-5.012-8.993-7.916c-0.023-0.022-0.045-0.045-0.067-0.067l-20.384,7.59
				C417.791,487.582,421.797,492.201,425.392,497.462z"/>
			<path id="XMLID_8_" style="fill:#F49D3D;" d="M470.86,454.441c0.305-13.715,12.967-25.251,16.408-28.137
				c14.912-21.613,16.587-50.202,6.482-74.804c-10.57-25.734-6.992-47.23-6.344-50.543c-7.322-4.055-18.293-10.594-25.776-17.132
				c0.665,17.497,0.971,71.598-19.199,92.198c-10.146,10.362-32.796,17.427-56.777,24.906c-29.529,9.21-62.711,19.569-74.201,37.49
				c1.925-1.09,3.78-2.086,5.56-2.94c3.729-1.817,7.097-3.115,9.897-4.072c2.799-0.966,5.049-1.548,6.583-1.922
				c1.536-0.369,2.366-0.511,2.366-0.511s-3.229,0.998-8.51,3.513c-2.637,1.259-5.774,2.913-9.218,5.028
				c-1.724,1.055-3.503,2.26-5.341,3.569c-0.906,0.673-1.868,1.312-2.848,1.973c-0.957,0.692-1.966,1.365-2.916,2.154
				c-3.88,3.048-7.82,6.704-11.392,11.073c-3.549,4.38-6.729,9.457-9.163,15.102c-2.453,5.637-4.031,11.862-4.795,18.284
				l-0.266,2.418c-0.018,0.181-0.054,0.451-0.057,0.559l-0.028,0.622l-0.056,1.245l-0.113,2.496
				c-0.014,0.822,0.029,1.618,0.039,2.43c0.023,0.809,0.023,1.616,0.063,2.428l0.218,2.447c0.097,1.638,0.397,3.253,0.643,4.874
				c1.068,6.477,3.228,12.749,6.102,18.548c2.875,5.802,6.413,11.171,10.349,15.96c7.862,9.613,16.854,17.148,24.883,23.056
				c1.987,1.516,4.035,2.763,5.84,4.16c1.814,1.385,3.556,2.676,5.214,3.863c3.309,2.384,6.249,4.399,8.689,6.033
				c4.878,3.286,7.665,5.164,7.665,5.164s-0.751-0.378-2.158-1.088c-1.404-0.716-3.482-1.732-6.081-3.115
				c-1.135-0.596-2.392-1.267-3.724-1.989c0.433,0.969,0.887,2.018,1.35,3.163c0.464,1.101,0.943,2.279,1.424,3.532
				c0.488,1.25,0.74,2.641,1.152,4.05c0.387,1.416,0.785,2.892,1.143,4.435c0.378,1.537,0.764,3.128,1.092,4.782
				c0.358,1.646,0.706,3.341,0.989,5.091c0.152,0.873,0.306,1.755,0.461,2.645c0.12,0.898,0.24,1.804,0.362,2.718
				c0.113,0.915,0.26,1.833,0.347,2.767c0.077,0.936,0.155,1.878,0.234,2.826c0.206,1.891,0.188,3.831,0.246,5.778
				c0.051,0.972-0.014,1.956-0.063,2.941c-0.049,0.985-0.097,1.973-0.146,2.963l-0.402,2.971c-0.132,0.975-0.269,2.018-0.487,2.947
				c-0.786,3.871-1.889,7.69-3.194,11.346c-1.313,3.658-2.839,7.163-4.422,10.472c-1.569,3.313-3.207,6.44-4.506,9.418
				c-1.28,2.954-2.22,5.873-1.742,8.2c0.035,0.296,0.151,0.565,0.214,0.846l0.165,0.397l0.083,0.196l0.01,0.024l0.054,0.091
				c0.184,0.296,0.359,0.593,0.525,0.889l0.232,0.444l0.218,0.323c0.139,0.225,0.277,0.446,0.412,0.665
				c0.168,0.213,0.362,0.417,0.538,0.626c0.333,0.447,0.785,0.748,1.175,1.109c1.692,1.293,3.632,1.9,5.237,2.228
				c1.14,0.218,4.511,0.011,6.734-0.132c-0.626-0.408-1.224-0.8-1.79-1.172c-2.314-1.513-4.099-2.753-5.32-3.59
				c-1.215-0.846-1.863-1.297-1.863-1.297s0.704,0.357,2.023,1.027c1.325,0.658,3.267,1.622,5.74,2.849
				c2.479,1.207,5.488,2.672,8.94,4.352c1.733,0.82,3.578,1.693,5.522,2.614c1.947,0.912,3.883,2.079,5.986,3.141
				c2.1,1.065,4.288,2.174,6.552,3.322c2.286,1.101,4.634,2.275,7.075,3.416c2.453,1.114,4.943,2.333,7.548,3.43
				c1.297,0.563,2.607,1.132,3.93,1.707c1.328,0.56,2.685,1.083,4.044,1.635c2.708,1.136,5.525,2.089,8.355,3.121
				c1.419,0.501,2.872,0.906,4.319,1.368c0.725,0.225,1.452,0.45,2.18,0.676l2.214,0.546c1.488,0.343,2.942,0.773,4.474,1.05
				c1.01,0.207,2.012,0.39,3.015,0.578c1.362-5.036,9.543-31.153,34.648-41.125c-20.041-1.59-87.372-6.865-87.372-6.865
				c3.037-0.284,6.271-0.485,9.641-0.619c0.029-28.417,10.975-43.924,13.519-47.175c-1.083,0.648-1.688,0.953-1.688,0.953
				s0.635-0.442,1.752-1.358c1.132-0.895,2.714-2.306,4.689-4.12c0.954-0.948,2.059-1.936,3.16-3.122
				c0.561-0.579,1.146-1.181,1.752-1.806c0.585-0.645,1.19-1.313,1.816-2.003c1.273-1.356,2.505-2.912,3.844-4.504
				c1.302-1.623,2.833-3.192,4.255-4.978c1.383-1.816,2.927-3.63,4.307-5.672c0.712-1.004,1.436-2.026,2.171-3.063
				c0.686-1.07,1.383-2.157,2.089-3.259c2.849-4.394,5.428-9.287,7.937-14.419c0.6-1.296,1.15-2.628,1.735-3.956
				c0.553-1.323,1.215-2.689,1.69-4.003c0.494-1.391,1.085-2.811,1.451-4.19c0.208-0.694,0.417-1.39,0.626-2.087
				c0.188-0.707,0.341-1.433,0.515-2.151c0.709-2.875,1.085-5.839,1.364-8.815c0.153-2.985,0.238-5.996-0.061-8.989
				c-0.448-5.997-1.917-11.896-4.047-17.431c-2.11-5.551-4.95-10.717-8.159-15.396c-6.415-9.392-14.236-16.793-21.417-22.393
				c-0.913-0.684-1.801-1.363-2.688-1.999c-0.891-0.632-1.777-1.225-2.587-1.883c-1.618-1.32-3.255-2.433-4.747-3.555
				c-1.542-1.045-2.969-2.057-4.331-2.929c-1.37-0.857-2.612-1.683-3.771-2.363c-1.158-0.688-2.191-1.301-3.09-1.836
				c-0.913-0.514-1.689-0.951-2.318-1.305c-1.264-0.706-1.938-1.082-1.938-1.082s0.719,0.281,2.068,0.807
				c0.675,0.266,1.507,0.594,2.486,0.98c0.965,0.421,2.074,0.905,3.315,1.446c1.242,0.547,2.579,1.228,4.06,1.93
				c1.473,0.717,3.027,1.567,4.711,2.444c1.636,0.954,3.433,1.894,5.232,3.041c1.848,1.079,3.548,2.557,5.438,3.934
				c3.381,2.637,6.903,5.687,10.37,9.133l20.384-7.59c-2.969-2.882-5.893-6.044-8.499-9.596c-1.329-1.773-2.529-3.687-3.595-5.697
				c-1.078-2.003-1.93-4.174-2.498-6.442c-0.562-2.268-0.787-4.667-0.527-7.033c0.25-2.366,0.99-4.665,2.068-6.723
				c0.288-0.504,0.563-1.011,0.864-1.509l1.001-1.456c0.336-0.451,0.672-0.84,1.006-1.262l1.039-1.256
				c0.663-0.803,1.338-1.586,1.98-2.39c0.63-0.816,1.256-1.626,1.876-2.43c4.888-6.501,8.954-12.979,12.324-18.584
				c0.864-1.391,1.548-2.807,2.382-4.048c0.84-1.24,1.637-2.416,2.386-3.521c1.477-2.23,2.765-4.174,3.826-5.774
				c2.103-3.226,3.304-5.07,3.304-5.07s-0.201,0.513-0.577,1.476c-0.385,0.958-0.933,2.375-1.7,4.144
				c-0.758,1.774-1.685,3.928-2.828,6.361c-0.573,1.217-1.182,2.513-1.824,3.878c-0.318,0.686-0.719,1.346-1.146,2.012
				c-0.42,0.671-0.828,1.369-1.247,2.081c-3.406,5.664-7.51,12.209-12.506,18.855c-0.636,0.823-1.277,1.654-1.923,2.49
				c-0.66,0.827-1.358,1.638-2.042,2.466l-0.989,1.196c-0.327,0.412-0.688,0.832-0.989,1.24l-0.818,1.197l-0.741,1.295
				c-0.921,1.764-1.533,3.678-1.743,5.657c-0.216,1.978-0.033,4.009,0.458,5.991c0.978,3.982,3.128,7.714,5.6,11.084
				c2.482,3.385,5.324,6.463,8.234,9.281c2.91,2.823,5.901,5.385,8.797,7.742c2.892,2.364,5.722,4.491,8.358,6.422
				c0.664,0.477,1.308,0.951,1.954,1.393c0.651,0.433,1.277,0.873,1.848,1.356c1.158,0.945,2.247,1.859,3.297,2.683
				c2.096,1.661,3.923,3.109,5.428,4.302c3.033,2.374,4.766,3.731,4.766,3.731s-0.491-0.25-1.41-0.719
				c-0.644-0.337-1.525-0.77-2.575-1.316c-0.803,0.725-1.795,1.76-2.645,3.155c-0.47,0.767-0.841,1.656-1.167,2.596
				c-0.26,0.966-0.475,1.991-0.487,3.082l-0.018,0.407l-0.007,0.167l0.006,0.229c0.004,0.313,0.014,0.616,0.043,0.867
				c0.04,0.523,0.127,1.135,0.212,1.717c0.19,1.182,0.441,2.407,0.716,3.646c0.53,2.481,1.1,5.037,1.301,7.552
				c0.106,1.255,0.094,2.502-0.051,3.691c-0.133,1.189-0.454,2.32-0.935,3.282c-0.465,0.969-1.104,1.749-1.761,2.291
				c-0.311,0.289-0.65,0.5-0.948,0.699c-0.323,0.166-0.604,0.332-0.875,0.446c-0.539,0.234-0.975,0.361-1.276,0.43
				c-0.297,0.073-0.456,0.111-0.456,0.111s0.134-0.093,0.385-0.269c0.259-0.154,0.606-0.435,1.031-0.779
				c0.042-0.037,0.088-0.088,0.131-0.127c-0.364-1.221-1.598-4.383-2.997-5.198c-0.551-0.322-1.124-0.381-1.805-0.186
				c-0.763,0.218-1.434,1.616-1.751,3.649c-0.802,5.14,0.76,11.275,1.837,11.994c2.729,1.817,25.754,2.541,28.107,0.188
				c2.217-2.217,5.894-23.837,5.894-42.94c0-8.685-4.833-16.339-9.507-23.741C475.059,469.072,470.688,462.151,470.86,454.441z"/>
			<path id="XMLID_9_" style="fill:#FFF4EC;" d="M542.06,371.225c-4.096-7.09-8.646-13.368-12.659-18.908
				c-8.536-11.781-15.39-21.244-14.76-32.69c-7.693-2.395-14.955-7.163-19.546-14.345c-0.075-0.118-0.142-0.238-0.214-0.356
				c-0.81-0.404-3.643-1.846-7.475-3.968c-0.648,3.313-4.226,24.808,6.344,50.543c10.105,24.602,8.43,53.191-6.482,74.804
				c0.457-0.383,0.758-0.62,0.839-0.683c0,0-0.791,0.841-1.993,2.302c-0.782,1.066-1.599,2.113-2.447,3.141
				c-4.108,5.573-9.611,14.642-9.807,23.443c-0.151,6.807,3.985,13.357,8.363,20.291c1.412,2.237,2.835,4.497,4.15,6.808
				c4.418-5.254,20.895-24.096,42.606-39.846C553.883,423.692,554.411,392.6,542.06,371.225z"/>
			<path id="XMLID_12_" style="fill:#FFF4EC;" d="M542.857,304.05l0.082-0.054c-1.975,0.518-4.208,0.789-6.716,0.789
				c-0.549,0-1.123-0.024-1.697-0.049c-0.776,0.721-1.659,1.361-2.636,1.861c-1.746,0.903-3.696,1.472-5.672,1.695
				c-0.495,0.073-0.991,0.116-1.486,0.132c-0.496,0.022-0.997,0.069-1.49,0.05l-1.56-0.024l-1.415-0.125l-1.413-0.149l-0.706-0.076
				l-0.739-0.146c-0.984-0.209-1.975-0.394-2.934-0.629c-0.935-0.291-1.857-0.597-2.76-0.913c-0.884-0.373-1.739-0.792-2.585-1.178
				c-0.827-0.428-1.607-0.921-2.369-1.388c-0.747-0.495-1.42-1.066-2.1-1.573c-0.654-0.544-1.243-1.129-1.823-1.674
				c-0.547-0.581-1.035-1.18-1.52-1.731c-0.446-0.587-0.859-1.158-1.246-1.7c-0.342-0.573-0.666-1.116-0.97-1.626
				c-0.266-0.532-0.529-1.017-0.741-1.482c-0.193-0.472-0.371-0.905-0.531-1.297c-0.296-0.791-0.464-1.433-0.576-1.867
				c-0.103-0.439-0.144-0.673-0.144-0.673s0.097,0.219,0.297,0.616c0.202,0.397,0.537,0.957,0.959,1.661
				c0.227,0.342,0.478,0.72,0.752,1.131c0.292,0.395,0.607,0.823,0.944,1.28c0.364,0.431,0.752,0.89,1.16,1.373
				c0.436,0.453,0.894,0.929,1.372,1.426c0.52,0.453,1.037,0.945,1.606,1.412c0.599,0.432,1.172,0.93,1.817,1.366
				c0.668,0.404,1.32,0.865,2.037,1.249c0.742,0.344,1.449,0.779,2.224,1.116c0.79,0.304,1.579,0.64,2.395,0.933
				c0.843,0.227,1.687,0.471,2.534,0.734c0.855,0.19,1.718,0.332,2.581,0.508c0.218,0.04,0.428,0.089,0.652,0.123l0.707,0.062
				l1.415,0.127l1.413,0.151l1.275,0.036c0.451,0.027,0.89-0.01,1.333-0.02c0.444-0.005,0.882-0.034,1.311-0.091
				c1.725-0.182,3.389-0.518,4.835-1.184c1.435-0.667,2.704-1.552,3.627-2.69c0.925-1.128,1.61-2.395,2.051-3.661
				c0.865-2.53,1.017-4.886,1.047-6.519c-0.16,0.01-0.318,0.025-0.481,0.028c-0.077,0.001-0.154,0.003-0.231,0.003
				c-7.025,0-13.84-5.984-16.783-9.556c-1.18-1.432-1.947-2.665-2.301-3.689c-8.391-1.376-15.948,1.171-20.129,6.95
				c-3.915,5.41-3.879,12.352,0.096,18.568c9.59,15,30.603,17.294,40.292,12.229c3.265-1.707,5.236-3.776,5.856-6.148
				C544.563,306.717,542.874,304.076,542.857,304.05z"/>
			<path id="XMLID_14_" style="fill:#482B12;" d="M536.735,288.393c0.059,0,0.12-0.001,0.18-0.001
				c7.23-0.135,10.769-9.751,11.214-11.052c0.065-0.909-0.008-2.004-0.649-2.411c-1.593-1.009-6.277,0.848-8.94,2.42l-0.673,0.397
				l-0.71-0.322c-5.978-2.713-12.254-3.547-15.26-2.031c-0.436,0.22-0.769,0.481-1.018,0.782l-0.318,1.24
				C521.642,280.122,529.426,288.393,536.735,288.393z"/>
			<path id="XMLID_15_" style="fill:#F49D3D;" d="M542.197,165.031c1.254-17.139,2.729-30.004,9.731-36.911
				c-13.299,4.757-23.397,16.839-30.152,36.182c-5.594,16.02-8.329,27.104-9.285,31.319c4.734,1.311,10.182,3.112,15.31,5.49
				C530.982,198.025,540.591,186.987,542.197,165.031z"/>
			<path id="XMLID_16_" style="fill:#FFF4EC;" d="M473.556,204.444c0.908,0.328,1.852,0.561,2.773,0.845
				c0.462,0.137,0.937,0.242,1.401,0.371l1.401,0.369l1.182,0.263c-0.086-0.947-0.116-1.873-0.1-2.823
				c0.03-1.497,0.186-2.988,0.415-4.471c0.273-1.474,0.591-2.95,1.095-4.373c0.248-0.712,0.494-1.426,0.818-2.11l0.456-1.038
				c0.165-0.34,0.352-0.669,0.528-1.004l0.537-1l0.611-0.956c0.404-0.641,0.821-1.273,1.305-1.857l1.306-1.684l0.654-0.853
				l0.321-0.425l0.224-0.407c0.639-1.035,1.171-2.237,1.529-3.481c0.119-0.636,0.352-1.25,0.392-1.903
				c0.031-0.652,0.161-1.295,0.144-1.954c-0.035-0.659-0.019-1.32-0.086-1.981l-0.309-1.986l-0.526-1.966
				c-0.156-0.662-0.467-1.286-0.681-1.937l-0.355-0.969l-0.436-0.944c-0.302-0.625-0.556-1.273-0.898-1.882
				c-0.674-1.224-1.34-2.456-2.113-3.637c-0.719-1.213-1.542-2.364-2.364-3.52c-0.805-1.168-1.708-2.269-2.561-3.413l-2.172-2.659
				c-1.349-1.081-2.69-2.207-3.995-3.413c-4.689-4.242-8.944-9.26-12.656-14.712c-0.923-1.367-1.848-2.742-2.71-4.158l-1.298-2.094
				c-0.411-0.645-0.85-1.284-1.319-1.884c-0.928-1.183-2.016-2.274-3.129-2.774c-1.113-0.494-2.004-0.327-2.967,0.524
				c-0.94,0.849-1.693,2.192-2.27,3.591c-0.582,1.414-1.009,2.934-1.344,4.477c-0.667,3.095-0.969,6.296-1.067,9.476
				c-0.182,6.371,0.454,12.684,1.58,18.677c2.261,12.011,6.624,22.723,11.61,31.085c1.21,2.119,2.603,3.996,3.798,5.866
				c1.187,1.879,2.387,3.62,3.573,5.217c0.127,0.171,0.251,0.322,0.378,0.49c0.631,0.321,1.263,0.638,1.908,0.927
				c0.435,0.212,0.891,0.381,1.335,0.574c0.444,0.192,0.892,0.372,1.35,0.534C471.725,203.821,472.637,204.145,473.556,204.444z"/>
			<path id="XMLID_17_" style="fill:#FFF4EC;" d="M478.171,667.307c-18.403-0.244-33.076,6.925-43.662,21.382
				c-6.613,9.029-9.478,18.232-10.274,21.154c2.613,0.458,5.24,0.882,7.875,1.264c6.202,0.897,12.436,1.584,18.586,2.059
				c6.149,0.473,12.218,0.75,18.066,0.721c2.917-0.032,5.799-0.11,8.528-0.415c0.68-0.075,1.353-0.165,1.988-0.287
				c0.632-0.111,1.272-0.274,1.679-0.45l0.109-0.046l0.034-0.027l0.204-0.161c0.061-0.052-0.009-0.042-0.001-0.055
				c-0.058,0.074,0.092-0.206,0.173-0.386c0.148-0.477,0.286-1.018,0.324-1.615c0.209-2.381-0.251-4.91-0.914-7.209
				c-0.698-2.312-1.667-4.462-2.81-6.391c-1.111-1.961-2.558-3.559-3.873-5.113c-1.341-1.538-2.772-2.884-4.265-3.966
				c-2.973-2.194-6.037-3.474-8.623-4.259c-0.647-0.208-1.266-0.385-1.86-0.503c-0.592-0.131-1.144-0.285-1.665-0.383
				c-1.048-0.164-1.941-0.351-2.674-0.422c-1.47-0.146-2.255-0.224-2.255-0.224s0.79-0.028,2.272-0.08
				c0.743-0.028,1.657,0.038,2.742,0.061c1.074,0.104,2.33,0.17,3.703,0.463c2.751,0.505,6.111,1.463,9.59,3.462
				c1.744,0.985,3.475,2.268,5.149,3.799c1.689,1.53,3.041,3.53,4.34,5.633c1.265,2.134,2.333,4.503,3.107,7.069
				c0.731,2.581,1.276,5.323,1.024,8.354c-0.03,0.416-0.103,0.848-0.201,1.289c0.6,0.02,1.339,0.048,2.216,0.085
				c1.248,0.049,2.756,0.149,4.487,0.156c0.862,0.014,1.78,0.028,2.747,0.043c0.484-0.008,0.971,0.067,1.466,0.155
				c0.497,0.063,1.009,0.1,1.531,0.147c1.043,0.091,2.13,0.185,3.256,0.283c1.121,0.033,2.281,0.067,3.473,0.101
				c1.192,0.034,2.395-0.076,3.637-0.106c0.623-0.012,1.223-0.136,1.845-0.198c0.612-0.092,1.259-0.115,1.851-0.284
				c0.6-0.146,1.223-0.262,1.82-0.43c0.564-0.219,1.167-0.394,1.714-0.641c1.068-0.516,2.048-1.181,2.596-2.002
				c0.134-0.204,0.264-0.408,0.325-0.62c0.053-0.104,0.084-0.207,0.096-0.306l0.037-0.149c0.004-0.033,0-0.043,0.008-0.064
				c0.025-0.016-0.006-0.243-0.02-0.401l-0.051-0.509l-0.101-1.02l-0.102-1.022l-0.168-1.011c-0.125-0.671-0.193-1.357-0.362-2.018
				c-0.536-2.681-1.441-5.261-2.601-7.652c-1.168-2.389-2.646-4.564-4.337-6.437c-3.384-3.768-7.567-6.247-11.346-7.778
				c-0.93-0.435-1.905-0.622-2.761-1.008c-0.853-0.402-1.685-0.744-2.476-1.049c-1.585-0.6-3.008-1.066-4.197-1.406
				c-2.381-0.676-3.807-0.91-3.807-0.91s0.355-0.054,1.029-0.116c0.673-0.056,1.669-0.143,2.94-0.129
				c1.271,0.007,2.822,0.07,4.596,0.306c0.887,0.114,1.834,0.256,2.826,0.457c0.5,0.086,0.986,0.267,1.473,0.477
				c0.493,0.192,0.999,0.384,1.509,0.599c4.083,1.654,8.684,4.364,12.442,8.547c1.876,2.076,3.517,4.494,4.804,7.126
				c1.279,2.633,2.262,5.459,2.842,8.35c0.181,0.717,0.258,1.449,0.391,2.172l0.178,1.087l0.11,1.091l0,0.002
				c1.9-1.015,3.793-2.335,4.529-3.657c0.38-0.963,0.227-8.34-5.248-16.516C514.271,677.544,502.581,667.664,478.171,667.307z"/>
			<path id="XMLID_21_" style="fill:#F49D3D;" d="M266.333,597.667c9.977-45.16,17.575-61.467,20.352-66.357
				c-0.395-0.741-0.781-1.489-1.155-2.246c-2.989-6.032-5.249-12.589-6.367-19.365c-0.26-1.696-0.569-3.386-0.673-5.098
				l-0.226-2.559c-0.043-0.859-0.045-1.727-0.068-2.588c-0.011-0.859-0.052-1.733-0.036-2.577l0.113-2.496l0.056-1.245l0.028-0.622
				c0.015-0.307,0.044-0.447,0.065-0.679l0.276-2.517c0.795-6.687,2.446-13.202,5.016-19.111c2.55-5.917,5.886-11.24,9.597-15.818
				c3.733-4.568,7.839-8.374,11.869-11.54c0.358-0.274,0.709-0.541,1.062-0.81c0.618-1.416,1.598-3.503,2.305-4.668
				c-6.469,1.677-21.254,6.686-35.378,19.822c-17.264,16.057-37.057,47.918-33.312,108.522c2.321,37.56-5.744,66.129-23.973,84.913
				c-31.515,32.475-87.708,30.691-128.743,29.394l-0.686-0.023c-0.286,0.535-0.578,1.441-0.114,2.472
				c0.324,0.718,1.06,1.655,2.677,2.656C254.321,691.175,253.751,654.617,266.333,597.667z"/>
			<path id="XMLID_22_" style="fill:#FFF4EC;" d="M327.634,573.348c-0.989-0.599-1.979-1.251-2.945-1.987
				c-0.971-0.729-2-1.423-3.012-2.19c-8.156-6.004-17.336-13.681-25.435-23.582c-3.545-4.314-6.796-9.107-9.556-14.28
				c-2.777,4.89-10.375,21.196-20.352,66.357c-12.582,56.951-12.012,93.508-177.315,87.46c5.266,3.261,19.871,7.208,59.983,6.514
				c6.936-0.118,13.345-0.179,19.541-0.236c62.233-0.581,83.198-0.776,113.154-58.291c25.468-48.901,42.466-56.804,49.538-57.629
				C330.066,574.805,328.874,574.101,327.634,573.348z"/>
			<path id="XMLID_19_" style="fill:#FFF4EC;" d="M480.027,664.358c22.455,0.762,34.493,9.384,40.917,17.878l0.314-0.063
				c0.126-0.029,0.281-0.047,0.384-0.083l0.282-0.108l0.286-0.094l0.02-0.006l0.13-0.1c0.021-0.018,0.08-0.055,0.068-0.059
				c-0.011-0.003-0.022-0.005-0.031-0.005c-0.018,0-0.031,0.007-0.039,0.016c0.014-0.031,0.043-0.099,0.06-0.133
				c0.15-0.29,0.256-0.767,0.315-1.243c0.225-1.981-0.164-4.167-0.736-6.13c-0.591-1.983-1.443-3.822-2.435-5.47
				c-0.963-1.68-2.237-3.023-3.367-4.357c-1.154-1.321-2.392-2.471-3.678-3.404c-2.568-1.881-5.212-2.991-7.448-3.676
				c-0.558-0.183-1.094-0.335-1.608-0.441c-0.511-0.115-0.988-0.255-1.44-0.34c-0.906-0.149-1.679-0.318-2.314-0.385
				c-1.273-0.139-1.953-0.213-1.953-0.213s0.685-0.032,1.969-0.091c1.284-0.013,3.195-0.039,5.601,0.38
				c2.397,0.403,5.33,1.189,8.399,2.866c1.535,0.833,3.071,1.916,4.56,3.226c1.505,1.307,2.69,3.056,3.845,4.881
				c1.118,1.857,2.073,3.919,2.744,6.167c0.64,2.26,1.127,4.655,0.838,7.358c-0.034,0.248-0.077,0.501-0.129,0.758
				c0.481,0.004,1.046,0.011,1.706,0.022c1.082,0.015,2.39,0.071,3.889,0.046c0.746-0.005,1.54-0.01,2.377-0.015
				c0.419-0.016,0.839,0.041,1.266,0.128c0.429,0.056,0.87,0.086,1.32,0.126c0.9,0.078,1.838,0.158,2.809,0.242
				c0.967,0.028,1.966,0.058,2.994,0.088c1.03,0.046,2.063-0.059,3.132-0.081c0.539,0.001,1.055-0.1,1.59-0.155
				c0.526-0.078,1.081-0.099,1.596-0.224c0.518-0.115,1.041-0.232,1.568-0.349c0.491-0.17,0.985-0.342,1.482-0.514
				c0.892-0.441,1.787-0.943,2.257-1.604c0.211-0.314,0.398-0.683,0.42-0.926c-0.002-0.005,0.001-0.009,0.01-0.014
				c0.005,0.005-0.001-0.064,0-0.093c0.002,0.026-0.006-0.055-0.008-0.078l-0.045-0.437l-0.02-0.198l-0.021-0.051
				c0.005-0.002,0.01-0.005,0.015-0.007l-0.063-0.62c-0.051-0.586-0.116-1.17-0.229-1.746c-0.107-0.576-0.174-1.163-0.312-1.731
				c-0.953-4.589-3.083-8.85-6.047-12.007c-2.944-3.186-6.563-5.264-9.825-6.549c-0.802-0.369-1.646-0.508-2.381-0.846
				c-0.731-0.357-1.446-0.66-2.125-0.932c-1.362-0.535-2.586-0.959-3.61-1.272c-2.051-0.618-3.283-0.858-3.283-0.858
				s1.23-0.249,3.44-0.297c1.103-0.021,2.452,0,3.998,0.169c0.773,0.08,1.599,0.183,2.466,0.336c0.437,0.065,0.861,0.216,1.284,0.4
				c0.429,0.166,0.867,0.336,1.315,0.509c3.56,1.403,7.593,3.7,10.92,7.298c1.66,1.786,3.119,3.876,4.262,6.16
				c1.139,2.284,2.001,4.745,2.52,7.259c0.149,0.625,0.226,1.26,0.341,1.89c0.091,0.473,0.149,0.947,0.199,1.422
				c1.579-0.889,3.101-1.947,3.608-2.835c0.304-0.847,0.065-7.185-4.636-13.97c-4.783-6.903-14.907-15.196-35.976-15.497
				C498.65,643.351,486.617,654.301,480.027,664.358z"/>
			<path id="XMLID_20_" style="fill:#FFF4EC;" d="M538.052,291.314c0.299,1.648,0.611,4.088,0.006,7.027
				c-0.229,1.109-0.622,2.288-1.241,3.436c5.624-0.102,9.537-1.682,11.646-4.719c0.832-1.198,1.346-2.562,1.637-3.993
				c0.268-1.112,0.256-1.887,0.256-1.887c0.236-3.193-0.425-6.499-1.11-8.925C547.311,285.888,543.725,290.667,538.052,291.314z"/>
			<path id="XMLID_29_" style="fill:#F49D3D;" d="M547.214,271.591c-0.412-0.264-1.037-0.628-1.77-1.178
				c-0.748-0.53-1.628-1.213-2.616-2.028c-0.483-0.419-1.013-0.85-1.546-1.334c-0.519-0.499-1.064-1.024-1.634-1.571
				c-0.539-0.579-1.101-1.183-1.682-1.807c-0.57-0.636-1.101-1.344-1.68-2.046c-1.097-1.449-2.227-3.014-3.185-4.766
				c-0.53-0.847-0.963-1.766-1.399-2.699c-0.221-0.465-0.444-0.933-0.667-1.403c-0.177-0.49-0.355-0.983-0.534-1.478
				c-0.35-0.992-0.742-1.981-0.957-3.029l-0.385-1.556c-0.135-0.518-0.263-1.038-0.315-1.573c-0.132-1.063-0.264-2.127-0.395-3.186
				c-0.014-1.066-0.027-2.129-0.041-3.183l-0.009-0.788l0.065-0.803c0.049-0.506,0.098-1.009,0.146-1.509
				c0.048-0.5,0.097-0.997,0.144-1.49c0.096-0.507,0.191-1.01,0.285-1.51c0.189-0.998,0.349-1.983,0.692-2.898
				c0.148-0.463,0.295-0.92,0.441-1.372c0.134-0.454,0.383-0.871,0.565-1.298c0.198-0.422,0.393-0.837,0.585-1.247
				c0.251-0.382,0.499-0.757,0.743-1.127c0.083-0.144,0.18-0.276,0.276-0.409c0.059-0.273,0.126-0.553,0.227-0.843
				c0.205-0.691,0.558-1.419,1.045-2.146c0.516-0.709,1.2-1.397,2.06-1.924c0.212-0.133,0.443-0.235,0.672-0.348l0.349-0.162
				l0.044-0.02l0.198-0.055l0.076-0.02l0.153-0.041l0.616-0.163c0.318-0.029,0.653-0.039,0.985-0.037
				c0.356-0.013,0.626,0.045,0.896,0.104c0.271,0.061,0.563,0.104,0.815,0.201c0.491,0.207,1.022,0.39,1.445,0.674l0.657,0.411
				l0.442,0.349c0.103,0.025,0.197,0.049,0.276,0.071c-0.053-0.276-0.102-0.546-0.16-0.831
				c-3.311-16.332-39.369-23.018-43.604-23.747c-0.681,1.587-1.326,2.855-1.823,3.799c-0.735,1.372-1.186,2.067-1.186,2.067
				s0.368-0.743,0.934-2.183c0.566-1.439,1.319-3.583,2.024-6.361c0.7-2.772,1.308-6.216,1.314-10.125
				c-0.013-1.951-0.211-4.014-0.695-6.1c-0.25-1.04-0.562-2.089-0.981-3.115l-0.301-0.778c-0.115-0.255-0.241-0.506-0.346-0.768
				l-0.164-0.391l-0.183-0.38l-0.395-0.836c-2.052-4.298-5.303-8.348-9.628-11.81c-1.709-1.391-3.548-2.762-5.433-4.176
				c0.47,0.493,0.933,0.995,1.36,1.527c0.937,1.108,1.88,2.215,2.729,3.404c0.913,1.142,1.661,2.406,2.455,3.644
				c0.397,0.619,0.713,1.292,1.074,1.937l0.525,0.979l0.45,1.023c0.28,0.693,0.62,1.359,0.83,2.085l0.664,2.165l0.436,2.249
				c0.106,0.759,0.125,1.537,0.186,2.307c0.051,0.772-0.07,1.556-0.115,2.333c-0.047,0.78-0.299,1.538-0.446,2.308
				c-0.417,1.51-1.02,2.964-1.882,4.373l-0.303,0.53l-0.321,0.436l-0.643,0.861l-0.7,0.918l-0.632,0.793
				c-0.441,0.514-0.819,1.075-1.185,1.643l-0.559,0.847l-0.489,0.889c-0.16,0.298-0.334,0.589-0.485,0.892l-0.419,0.926
				c-0.299,0.609-0.526,1.249-0.758,1.887c-0.468,1.275-0.828,2.591-1.12,3.926c-0.256,1.342-0.451,2.7-0.529,4.069
				c-0.063,1.35-0.08,2.782,0.06,4.042l0.202,1.817l-1.634-0.468l-2.873-0.824c-0.945-0.32-1.899-0.605-2.833-0.954
				c-0.927-0.373-5.432-1.975-5.432-1.975s2.044,1.982,3.462,3.437c2.008,2.057,5.445,6.333,5.445,6.333s-0.705-0.433-1.994-1.304
				c-1.072-0.735-2.577-1.762-4.351-3.172c-4.521,7.515-5.167,15.373-5.783,22.979c-0.324,4.008-0.631,7.794-1.499,11.353
				c-0.817,3.351-2.69,6.63-4.673,10.102c-4.275,7.484-8.313,14.554-1.894,22.068c0.409,0.479,0.855,0.961,1.316,1.443l1.115,1.123
				c8.998,8.745,25.168,17.494,31.214,20.611c-1.956-5.842-1.147-11.862,2.453-16.837c4.834-6.683,13.414-9.677,22.868-8.179
				c0.535-1.019,1.405-1.854,2.582-2.447c3.75-1.89,10.419-1.23,17.145,1.667c1.934-1.064,6.533-3.294,9.872-2.582
				C547.466,271.741,547.356,271.675,547.214,271.591z M482.996,229.04c-0.089,0.283-0.137,0.434-0.137,0.434
				s-0.012-0.158-0.034-0.455c-0.02-0.298-0.034-0.739,0.004-1.299c0.041-0.558,0.1-1.247,0.275-2.013
				c0.159-0.771,0.381-1.638,0.729-2.546c0.655-1.833,1.717-3.874,3.212-5.836c1.505-1.944,3.449-3.849,5.957-5.11
				c1.248-0.619,2.655-1.068,4.134-1.116c0.364-0.032,0.739,0.008,1.104,0.024c0.366,0.052,0.855,0.12,1.12,0.203l0.433,0.122
				l0.054,0.015l0.086,0.024l0.015,0.006l0.03,0.012l0.118,0.048l0.235,0.096c0.31,0.132,0.617,0.263,0.922,0.393
				c1.17,0.627,2.231,1.389,3,2.313c0.415,0.43,0.735,0.916,1.046,1.37c0.267,0.484,0.543,0.935,0.728,1.404
				c0.434,0.908,0.646,1.797,0.82,2.568c0.154,0.779,0.223,1.462,0.243,2.024c0.037,0.559,0,1.001-0.014,1.298
				c-0.021,0.299-0.048,0.455-0.048,0.455s-0.152-0.62-0.521-1.639c-0.369-1.013-0.968-2.438-1.977-3.868
				c-0.494-0.72-1.126-1.405-1.844-2.022c-0.701-0.649-1.606-1.072-2.517-1.48c-0.241-0.076-0.485-0.152-0.73-0.229l-0.182-0.061
				l-0.091-0.031l-0.003-0.001l-0.026-0.005l-0.44-0.091c-0.165-0.041-0.264-0.041-0.362-0.045l-0.308-0.022
				c-0.242,0.013-0.479-0.018-0.726,0.022c-0.976,0.085-1.993,0.4-2.965,0.901c-1.966,0.972-3.754,2.529-5.256,4.138
				c-1.521,1.609-2.74,3.325-3.691,4.863c-0.941,1.546-1.583,2.934-1.975,3.944C483.23,228.352,483.072,228.757,482.996,229.04z
				 M502.639,256.333c-0.383,0.294-0.931,0.741-1.679,1.128c-0.368,0.203-0.784,0.395-1.233,0.576
				c-0.454,0.165-0.931,0.358-1.448,0.47c-0.51,0.147-1.049,0.242-1.6,0.32c-0.55,0.085-1.117,0.087-1.681,0.133
				c-0.564-0.025-1.129-0.038-1.681-0.087c-0.549-0.074-1.089-0.157-1.605-0.257c-0.511-0.125-1-0.264-1.463-0.392
				c-0.458-0.142-0.875-0.328-1.263-0.479c-0.787-0.278-1.37-0.681-1.802-0.891c-0.423-0.234-0.657-0.38-0.657-0.38
				s0.272,0.066,0.734,0.201c0.463,0.13,1.106,0.36,1.905,0.525c0.394,0.093,0.821,0.195,1.272,0.302
				c0.457,0.075,0.938,0.151,1.43,0.248c0.496,0.071,1.015,0.091,1.534,0.162c0.522,0.035,1.055,0.033,1.585,0.049
				c0.529-0.034,1.063-0.022,1.58-0.092c0.517-0.07,1.033-0.104,1.518-0.219c0.984-0.17,1.879-0.448,2.641-0.711
				c1.526-0.535,2.467-1.132,2.467-1.132S503.012,256.019,502.639,256.333z M506.692,250.496c-1.573,3.047-6.436,5.188-10.971,5.188
				c-1.073,0-2.128-0.12-3.116-0.376c-3.079-0.798-8.202-3.534-7.913-12.88l0.004-0.19c0.102-6.75,1.776-11.91,4.716-14.531
				c1.831-1.632,4.104-2.323,6.762-2.059c3.745,0.375,6.852,2.649,8.985,6.578C508.472,238.325,508.625,246.75,506.692,250.496z"/>
			<path id="XMLID_26_" style="fill:#FFF4EC;" d="M495.876,228.633c-0.268-0.027-0.528-0.04-0.781-0.04
				c-1.456,0-2.668,0.446-3.686,1.354c-2.199,1.96-3.534,6.241-3.697,11.787c1.052-2.594,3.592-4.426,6.563-4.426
				c0.811,0,1.587,0.143,2.312,0.394c-1.094,0.541-1.854,1.657-1.854,2.96c0,1.829,1.483,3.313,3.313,3.313
				c1.292,0,2.398-0.747,2.945-1.825c0.235,0.705,0.368,1.457,0.368,2.242c0,3.912-3.171,7.083-7.083,7.083
				c-2.103,0-3.987-0.922-5.284-2.378c0.953,1.682,2.416,2.801,4.367,3.307c4.369,1.134,9.58-1.177,10.668-3.284
				c1.521-2.948,1.19-10.502-1.503-15.463C500.863,230.599,498.627,228.908,495.876,228.633z"/>
			<path id="XMLID_27_" style="fill:#FFF4EC;" d="M572.805,126.291c-0.803-0.119-1.568-0.201-2.327-0.277
				c-0.636-0.058-1.266-0.1-1.892-0.135c-0.187-0.01-0.377-0.022-0.562-0.029c-0.385-0.017-0.765-0.022-1.146-0.03
				c-4.959-0.013-8.833,1.115-11.724,3.429c-7.214,5.775-8.731,19.135-9.965,36c-1.581,21.608-10.433,33.064-14.526,37.27
				c0.356,0.186,0.708,0.375,1.058,0.567c23.974-7.606,27.775-29.355,30.825-46.88c1.688-9.695,3.144-18.068,7.869-21.898
				c5.088-4.126,6.852-6.207,7.462-7.146c-1.723-0.373-3.412-0.666-5.07-0.887L572.805,126.291z"/>
			<path id="XMLID_51_" style="fill:#F49D3D;" d="M538.485,253.127c-2.068,0-4.194-0.583-5.844-1.554
				c0.054,0.156,0.108,0.313,0.161,0.469c0.125,0.286,0.249,0.57,0.373,0.854c0.268,0.133,0.874,0.417,1.698,0.688
				c0.566,0.177,1.224,0.366,1.944,0.48c0.355,0.08,0.733,0.098,1.11,0.148c0.378,0.05,0.767,0.039,1.153,0.062
				c0.387-0.011,0.776-0.007,1.157-0.031c0.379-0.052,0.759-0.059,1.122-0.107c0.36-0.068,0.714-0.115,1.051-0.164
				c0.333-0.071,0.649-0.138,0.94-0.199c0.593-0.104,1.068-0.268,1.419-0.341c0.351-0.078,0.552-0.123,0.552-0.123
				s-0.172,0.111-0.474,0.305c-0.31,0.178-0.739,0.481-1.317,0.704c-0.286,0.12-0.592,0.266-0.931,0.376
				c-0.342,0.102-0.704,0.212-1.084,0.308c-0.383,0.078-0.784,0.147-1.194,0.202c-0.411,0.038-0.833,0.049-1.253,0.069
				c-0.42-0.036-0.843-0.039-1.254-0.104c-0.411-0.059-0.812-0.137-1.192-0.249c-0.765-0.197-1.44-0.507-1.984-0.816
				c-0.681-0.385-1.139-0.788-1.389-1.039c0.048,0.11,0.096,0.22,0.144,0.33c0.384,0.902,0.766,1.794,1.248,2.621
				c0.874,1.699,1.86,3.271,2.844,4.73c0.518,0.711,1.006,1.418,1.509,2.079c0.518,0.651,1.018,1.28,1.499,1.884
				c1.021,1.159,1.954,2.23,2.837,3.132c0.881,0.901,1.675,1.669,2.356,2.269c0.966,0.875,1.657,1.448,1.975,1.705
				c0.509,0.118,0.989,0.302,1.422,0.576c1.084,0.686,2.314,2.176,2.02,5.386l-0.061,0.308c-0.001,0.005-0.005,0.017-0.007,0.023
				c0.457,1.171,1.316,3.603,1.865,6.547c2.232-8.224-0.239-14.24-3.802-22.893c-0.937-2.274-1.905-4.626-2.893-7.262
				c-0.555-1.48-0.997-2.821-1.358-4.069c-1.33,1.517-2.943,2.145-3.914,2.397C540.151,253.032,539.323,253.127,538.485,253.127z"/>
			<path id="XMLID_53_" style="fill:#F49D3D;" d="M542.188,223.458c-0.287-0.251-0.568-0.521-0.871-0.732l-0.445-0.341l-0.462-0.272
				c-0.299-0.22-0.611-0.305-0.912-0.457c-0.152-0.063-0.298-0.075-0.444-0.126c-0.151-0.049-0.301-0.093-0.38-0.081
				c-0.098-0.008-0.192-0.03-0.3-0.066l-0.629,0.1l-0.156,0.025l-0.043,0.007l-0.17,0.062c-0.15,0.059-0.314,0.09-0.459,0.156
				c-0.449,0.201-0.858,0.471-1.244,0.772c-0.172,0.143-0.344,0.286-0.513,0.442c-0.386,0.395-0.76,0.802-1.044,1.248
				c-0.68,1.002-1.113,1.999-1.41,2.703c-0.289,0.71-0.433,1.144-0.433,1.144s-0.049-0.203-0.093-0.549
				c-0.025,0.062-0.049,0.122-0.074,0.184c-0.145,0.405-0.353,0.785-0.453,1.221c-0.111,0.43-0.224,0.865-0.337,1.304
				c-0.097,0.443-0.263,0.874-0.321,1.333c-0.071,0.456-0.143,0.915-0.216,1.379c-0.073,0.462-0.148,0.929-0.222,1.398
				c-0.031,0.495-0.062,0.993-0.094,1.495c-0.026,0.413-0.052,0.83-0.078,1.247c0.241-0.629,0.519-1.241,0.836-1.824
				c1.639-3.019,4.038-4.769,6.937-5.059c2.076-0.205,3.854,0.337,5.291,1.617c0.287,0.256,0.536,0.549,0.78,0.846
				c0.123-2.003,0.13-4.295-0.163-7.136c-0.099-0.123-0.194-0.246-0.296-0.369C543.281,224.548,542.75,223.981,542.188,223.458z"/>
			<path id="XMLID_54_" style="fill:#F49D3D;" d="M543.168,220.397c0.061,0.044,0.11,0.097,0.167,0.144
				c-0.008-0.042-0.016-0.086-0.025-0.128C543.267,220.407,543.217,220.402,543.168,220.397L543.168,220.397z"/>
			<path id="XMLID_2_" style="fill:#FFF4EC;" d="M543.646,238.682c-0.431-2.13-1.181-3.754-2.191-4.654
				c-0.795-0.709-1.778-0.996-2.996-0.872c-1.893,0.189-3.44,1.368-4.599,3.504c-1.175,2.164-1.677,4.792-1.726,7.009
				c0.312,0.147,0.649,0.25,1.017,0.25c1.35,0,2.444-1.094,2.444-2.444c0-0.962-0.56-1.786-1.368-2.185
				c0.536-0.185,1.108-0.291,1.706-0.291c2.887,0,5.227,2.34,5.227,5.227c0,2.887-2.34,5.227-5.227,5.227
				c-0.355,0-0.701-0.037-1.036-0.104c1.502,0.667,3.51,1.035,5.282,0.577c2.204-0.572,3.22-2.215,3.638-4.029
				C544.178,242.168,543.646,238.682,543.646,238.682z"/>
			<path id="XMLID_40_" style="opacity:0.61;fill:#D1D3D4;" d="M281.039,483.024c3.082-8.829,5.711-14.274,5.711-14.274
				C283.9,472.611,282.135,477.89,281.039,483.024z"/>
			<path id="XMLID_68_" style="opacity:0.61;fill:#D1D3D4;" d="M311,559.5l-22-25.75l-1.296-4.454
				c-2.551,4.722-8.352,16.502-12.628,33.036c0.215,0.725,0.438,1.447,0.674,2.167c14.25,43.5-17.5,96.25-38.5,105
				S171.5,687.25,86.5,682.75l0.5,3L99.5,691l75.5,2.25l50-3.5l19.75-8l17.75-14.25l13.5-21.25l12.75-23l18.5-29.25L322,579.5
				l13-2.25L311,559.5z"/>
			<path id="XMLID_69_" style="opacity:0.51;fill:#F49D3D;" d="M279.25,500.25c0,0-0.097-8.397,1.789-17.226
				c-6.313,18.084-14.527,50.383-5.963,79.309c4.276-16.534,10.077-28.314,12.628-33.036L279.25,500.25z"/>
			<path id="XMLID_35_" style="opacity:0.51;fill:#F49D3D;" d="M435.75,527.5c0,0,0,65-54.75,59.75S281,512.5,281,512.5
				l6.444,17.281C288.411,527.965,289,527,289,527s-0.589,0.965-1.556,2.781l1.806,4.844L311,559.5l25.875,17.75l4.5,9.5
				c0,0,3.875,24.75,5.25,30.75s1.5,20.625-6.375,34.125s-3.5,23.125,7,16.625s32.875-7.5,32.875-7.5
				c-2.375-22.625,9.792-40.083,9.792-40.083l3.417-8.167c0,0,7.167-7.5,12.917-11.75S415,588.5,428,569.25
				S435.75,527.5,435.75,527.5z"/>
			<path id="XMLID_6_" style="opacity:0.51;fill:#F49D3D;" d="M332.333,667.5c0,0-1.167,8.917,7.75,7.75
				C349,674.083,388,694,408,696.5s24.5-6.75,24.5-6.75l-7.75,13l-2.125,6.75L419.5,710l-34.375-10.625L362.625,687l-13.125-6.625
				l-1.458,0.5l-7.542,0.667l-8.833-5.167L332.333,667.5z"/>
			<path id="XMLID_4_" style="opacity:0.51;fill:#F49D3D;" d="M456.5,545.5L482,546l-2.5,7.75l-14,25l-21.25,18.75l-5.25,14
				l-4.25,19.5v6.5c0,0-18,4.75-18.25,10.5s63.5,13,63.5,13l-3,4.5l-14.5,2.75L421.25,662l-13.75-7.75l-7.5,1.25l-6.25-2l-2.75-5.75
				l4-9.5l8.75-22.75l1.25-13.75l12.25-15.25L428,569.25C428,569.25,449.5,556.75,456.5,545.5z"/>
			<path id="XMLID_63_" style="opacity:0.61;fill:#D1D3D4;" d="M466.125,498.5L445,482.375l-8.378-7.299l-23.32,8.547
				c4.91,4.545,9.063,9.423,11.448,14.377c9.75,20.25,12.5,28.5,12.5,34S434,554.5,434,554.5l-6.5,16.75L453,551.5l3.5-6
				c0,0-3.5-2-4.25-5.5s0.5-13.75,0.5-13.75l3.375-1.125l4.75,4.375L461,531l2.5-2.125l-0.75-7c0,0-1.375-14.75-1.5-15.25
				s4.125-6.375,4.125-6.375L466.125,498.5z"/>
			<path id="XMLID_67_" style="opacity:0.51;fill:#F49D3D;" d="M428.5,468l-7.75-16.25l2.125-11.625c0,0,8.875-12.125,9.25-12.375
				s10.25-14.875,10.25-14.875s-32.5,35-66.625,45.875c0,0,22.392,10.842,37.552,24.873l23.32-8.547L428.5,468z"/>
			<path id="XMLID_24_" style="opacity:0.61;fill:#D1D3D4;" d="M486.5,427.5c0,0-6,10.25,9,19.5s45.5-13.5,45.5-13.5l-23.75,18.25
				l-21.75,20.5l-9,12.25l-13-21.5l-1.25-11.25l3-9.75C475.25,442,482.75,430.25,486.5,427.5z"/>
			<path id="XMLID_18_" style="opacity:0.51;fill:#F49D3D;" d="M496.375,473.25l8.875,18.25l-2,5.375l3.625-4.625l3-1.125
				L505.5,473.75c0,0,5.5-11.75,7.875-13.375s0-2.75,0-2.75L496.375,473.25z"/>
			<path id="XMLID_25_" style="opacity:0.51;fill:#F49D3D;" d="M502.125,499.25c0,0-4.125,16.375-1.375,18.5
				s14.875-12.125,14.875-12.125s-7.625,15.5-6.875,21.625s9.875,4.375,9.875,4.375s-4.25,6.625-11.375,7.375
				s-13.5-13.625-13.5-13.625s1.625-4.25,1.625-5S502.125,499.25,502.125,499.25z"/>
			<path id="XMLID_62_" style="opacity:0.51;fill:#F49D3D;" d="M470,497.625l5.333-1.958C443,483,419.75,449,419.75,449
				l5.375,14.375l10.836,11.943l2.914-1.068l-2.914,1.068l6.289,6.932l23.375,15.875l0.5,1.125c-3.375,1.875-6.5,9.375-4.5,17.625
				s0.75,14.75,0.75,14.75s5.875-9.75,4.625-14.5s-0.25-15.75,2.25-14.5s7.625,1.125,7.625,1.125L470,497.625z"/>
			<path id="XMLID_33_" style="opacity:0.51;fill:#F49D3D;" d="M452.5,529.917c0,0,0.917,8.083,4.333,9.75
				c3.417,1.667,27.917,0.333,28.583-0.917c0.667-1.25,0.5,3.583-1.417,5.167c-1.917,1.583-17.083,2.583-17.083,2.583
				s-13.583-2.167-13.667-2.417C453.167,543.833,452.5,529.917,452.5,529.917z"/>
			<path id="XMLID_65_" style="opacity:0.51;fill:#F49D3D;" d="M487.603,298.26l-28.478-17.385c0,0,13.923,30.573,27.371,42.741
				C486.17,317.625,485.944,307.016,487.603,298.26z"/>
			<path id="XMLID_66_" style="fill:#FFF4EC;" d="M520,337l-4-18l-13.75-8.5l-9.75-9.25l-4.897-2.99
				c-1.659,8.756-1.433,19.365-1.107,25.355c0.335,0.303,0.67,0.605,1.004,0.884C501.25,336,520,337,520,337z"/>
			<path id="XMLID_36_" style="opacity:0.61;fill:#D1D3D4;" d="M496.75,290c0,0,2,17.875,18.25,21.375S544,306,544,306l-0.875-2.625
				c0,0,7.875-5.5,7.5-9s0.625-6.25,0.625-6.25s-3.625,9-7.125,9.125s-4.375-6.75-4.375-6.75l-1.625,0.5c0,0,0.25,9-4,11.875
				S523,307.5,518.625,307S501.5,302.375,496.75,290z"/>
			<path id="XMLID_64_" style="opacity:0.51;fill:#F49D3D;" d="M494,296.667l0.333-11c0,0-29.5-12.167-34.5-17.333
				c-5-5.167,0.667-14.5,0.667-14.5l-6.667,10.667l1.667,10.833l13.833,13.167l18.233,9.956c0.221-1.19,0.473-2.349,0.767-3.456
				c-0.294,1.107-0.547,2.266-0.767,3.456l7.101,3.877L494,296.667z"/>
			<path id="XMLID_38_" style="opacity:0.51;fill:#F49D3D;" d="M486.625,256.625c0,0,10.125,4.25,16.25-0.625
				C502.875,256,495.625,267.75,486.625,256.625z"/>
			<path id="XMLID_37_" style="opacity:0.51;fill:#F49D3D;" d="M483.25,228.875c0,0,11.75-21.25,23.5-5.875
				c0,0-1.125-10.875-7.875-10.875S483.375,221.5,483.25,228.875z"/>
			<path id="XMLID_39_" style="opacity:0.51;fill:#F49D3D;" d="M531.75,228.375c0,0,7.75-11,15,2c0,0-2.625-10.875-8.5-11
				S531.75,228.375,531.75,228.375z"/>
			<path id="XMLID_41_" style="opacity:0.51;fill:#F49D3D;" d="M532,252.583c0,0,6.75,10.667,13,0.5
				C545,253.083,538.333,256.917,532,252.583z"/>
			<path id="XMLID_42_" style="opacity:0.51;fill:#F49D3D;" d="M524.167,155.5c0,0-6.833,24.667-3.667,30.333
				C523.667,191.5,532,196,532,196l-4.333,6.667L510.333,196L524.167,155.5z"/>
			<path id="XMLID_43_" style="opacity:0.51;fill:#F49D3D;" d="M501,173.833c0,0,0.667,15.667-6.667,21
				C487,200.167,483.167,209,483.167,209l-15.833-5.833l5,5.833l-5,9.667l-1.167,6.5l12.5-11c0,0,16.167-6.167,19.833-17.333
				C502.167,185.667,503.333,179.5,501,173.833z"/>
			<path id="XMLID_60_" style="opacity:0.61;fill:#D1D3D4;" d="M428.833,695.167c0,0,42,2.167,47.667-1.333l-3.833-6.167l-9-4.667
				c0,0,15.5-0.333,24.167,15.5c8.667,15.833,29.333,2,29.333,2l-4.5-12.333L497.167,677c0,0,16.5,4,20.167,12.5
				c0,0,1.5,2.833,6.5,1.667l2.833,8.333c0,0-0.5,3.167-0.5,3.833c0,0.667-4.667,4.5-4.667,4.5l-3.167,1.833L513.667,714
				l-13.5,0.833l-17.833-2.667L477.5,715l-35.167-1.167L422.5,711.5L428.833,695.167z"/>
			<path id="XMLID_61_" style="opacity:0.61;fill:#D1D3D4;" d="M480,661c0,0,26.5,4,37.833,12.5c11.333,8.5,2-8.5-2.167-11.333
				c-4.167-2.833-10.5-5.667-10.5-5.667s18.333-1.167,27.167,12.667c8.833,13.833,21,2,21,2s-2.5-14.667-19.167-19.333
				c0,0,12.5-1.333,22.833,14.167c0,0,3-0.667,3-1.667s3,6.167,2.5,8.333c-0.5,2.167-3.5,3.667-3.5,3.667l-2.833,1.333
				c0,0-1.833,4.167-3.333,4.667s-14.167,1.833-14.167,1.833l-13.667-2l-3.667,1.667l-11.833-10l-15.833-6.667L477,665.5L480,661z"
				/>
		</g>
		<path id="XMLID_55_" d="M498.239,211.123c-0.365-0.015-0.739-0.055-1.104-0.024c-1.479,0.048-2.886,0.496-4.134,1.116
			c-2.508,1.261-4.452,3.166-5.957,5.11c-1.495,1.962-2.557,4.003-3.212,5.836c-0.348,0.907-0.569,1.775-0.729,2.546
			c-0.175,0.766-0.233,1.455-0.275,2.013c-0.038,0.56-0.024,1.001-0.004,1.299c0.022,0.297,0.034,0.455,0.034,0.455
			s0.048-0.151,0.137-0.434c0.075-0.283,0.233-0.688,0.416-1.194c0.391-1.01,1.033-2.398,1.975-3.944
			c0.952-1.537,2.17-3.253,3.691-4.863c1.501-1.609,3.29-3.166,5.256-4.138c0.973-0.502,1.99-0.817,2.965-0.901
			c0.247-0.039,0.484-0.009,0.726-0.022l0.308,0.022c0.098,0.004,0.197,0.004,0.362,0.045l0.44,0.091l0.026,0.005l0.003,0.001
			l0.091,0.031l0.182,0.061c0.245,0.077,0.489,0.153,0.73,0.229c0.91,0.408,1.815,0.831,2.517,1.48
			c0.718,0.617,1.35,1.303,1.844,2.022c1.008,1.43,1.607,2.856,1.977,3.868c0.369,1.019,0.521,1.639,0.521,1.639
			s0.027-0.156,0.048-0.455c0.013-0.297,0.051-0.739,0.014-1.298c-0.02-0.562-0.089-1.245-0.243-2.024
			c-0.174-0.771-0.386-1.661-0.82-2.568c-0.185-0.469-0.461-0.92-0.728-1.404c-0.311-0.454-0.63-0.94-1.046-1.37
			c-0.769-0.924-1.83-1.686-3-2.313c-0.305-0.13-0.612-0.261-0.922-0.393l-0.235-0.096l-0.118-0.048l-0.03-0.012l-0.015-0.006
			l-0.086-0.024l-0.054-0.015l-0.433-0.122C499.094,211.243,498.605,211.175,498.239,211.123z"/>
		<path id="XMLID_58_" d="M496.175,225.648c-2.659-0.264-4.932,0.427-6.762,2.059c-2.939,2.621-4.614,7.781-4.716,14.531
			l-0.004,0.19c-0.289,9.347,4.833,12.082,7.913,12.88c0.988,0.256,2.043,0.376,3.116,0.376c4.535,0,9.398-2.142,10.971-5.188
			c1.933-3.746,1.779-12.17-1.532-18.27C503.027,228.297,499.92,226.023,496.175,225.648z M504.026,249.12
			c-1.088,2.107-6.299,4.418-10.668,3.284c-1.951-0.506-3.414-1.626-4.367-3.307c1.297,1.456,3.181,2.378,5.284,2.378
			c3.912,0,7.083-3.171,7.083-7.083c0-0.784-0.133-1.536-0.368-2.242c-0.546,1.078-1.653,1.825-2.945,1.825
			c-1.829,0-3.313-1.483-3.313-3.313c0-1.303,0.76-2.42,1.854-2.96c-0.726-0.251-1.501-0.394-2.312-0.394
			c-2.972,0-5.512,1.832-6.563,4.426c0.163-5.546,1.497-9.827,3.697-11.787c1.018-0.908,2.23-1.354,3.686-1.354
			c0.253,0,0.513,0.014,0.781,0.04c2.751,0.275,4.987,1.965,6.647,5.023C505.216,238.617,505.548,246.172,504.026,249.12z"/>
		<path id="XMLID_59_" d="M498.084,257.65c-0.486,0.114-1.001,0.149-1.518,0.219c-0.517,0.07-1.051,0.058-1.58,0.092
			c-0.53-0.016-1.063-0.014-1.585-0.049c-0.519-0.071-1.038-0.092-1.534-0.162c-0.492-0.097-0.972-0.172-1.43-0.248
			c-0.451-0.107-0.878-0.208-1.272-0.302c-0.799-0.165-1.442-0.395-1.905-0.525c-0.461-0.135-0.734-0.201-0.734-0.201
			s0.234,0.146,0.657,0.38c0.432,0.211,1.015,0.613,1.802,0.891c0.388,0.151,0.805,0.337,1.263,0.479
			c0.462,0.128,0.951,0.267,1.463,0.392c0.516,0.1,1.056,0.183,1.605,0.257c0.552,0.049,1.117,0.061,1.681,0.087
			c0.564-0.047,1.13-0.048,1.681-0.133c0.551-0.078,1.09-0.173,1.6-0.32c0.518-0.113,0.995-0.305,1.448-0.47
			c0.449-0.18,0.864-0.372,1.233-0.576c0.748-0.387,1.296-0.834,1.679-1.128c0.374-0.314,0.554-0.525,0.554-0.525
			s-0.941,0.597-2.467,1.132C499.963,257.202,499.068,257.48,498.084,257.65z"/>
		<path id="XMLID_46_" d="M581.041,125.728c-0.378-0.965-1.33-1.396-2.189-1.422c-2.444-0.542-4.821-0.931-7.142-1.187
			c-0.046-0.005-0.092-0.011-0.138-0.017c-0.326-0.035-0.652-0.069-0.975-0.098c-0.528-0.05-1.047-0.091-1.557-0.121
			c-23.358-1.501-40.187,12.053-50.097,40.43c-5.586,15.994-8.354,27.146-9.354,31.54c-4.066-1.027-7.323-1.648-8.941-1.933
			c0.934-2.666,1.883-5.947,2.234-9.86c0.176-2.071,0.173-4.315-0.151-6.676c-0.171-1.178-0.412-2.387-0.78-3.598
			c-0.182-0.606-0.393-1.212-0.656-1.807l-0.193-0.448l-0.218-0.445l-0.419-0.824c-1.198-2.281-2.583-4.622-4.364-6.772
			c-1.754-2.175-3.842-4.177-6.092-6.015c-4.516-3.666-9.471-6.914-13.937-11.046c-4.504-4.076-8.592-8.891-12.202-14.191
			c-0.897-1.328-1.796-2.665-2.637-4.047l-1.294-2.088c-0.47-0.74-0.964-1.459-1.508-2.155c-1.107-1.372-2.353-2.766-4.262-3.66
			c-0.947-0.428-2.128-0.679-3.289-0.459c-1.156,0.206-2.164,0.8-2.91,1.488c-1.511,1.397-2.349,3.054-3.04,4.682
			c-0.674,1.642-1.137,3.312-1.501,4.983c-0.72,3.345-1.03,6.701-1.134,10.021c-0.189,6.642,0.471,13.146,1.631,19.325
			c2.329,12.373,6.82,23.407,11.978,32.06c0.64,1.086,1.305,2.126,1.944,3.149c0.637,1.025,1.296,2.005,2.009,2.909
			c1.435,1.801,2.862,3.45,4.253,4.949c2.283,2.453,4.451,4.482,6.403,6.161c-5.104,8.242-5.814,16.973-6.438,24.681
			c-0.315,3.886-0.611,7.556-1.423,10.883c-0.717,2.941-2.488,6.042-4.363,9.325c-4.387,7.681-9.359,16.386-1.57,25.505
			c0.546,0.639,1.143,1.279,1.768,1.919c0.585,12.436,2.25,72.174-18.199,93.058c-9.617,9.821-31.917,16.777-55.526,24.141
			c-29.703,9.265-60.291,18.805-73.665,35.653c-2.955,0.513-21.678,4.33-39.839,21.154c-17.802,16.492-38.219,49.141-34.395,111.026
			c2.267,36.682-5.516,64.485-23.132,82.639c-30.591,31.523-86.022,29.77-126.494,28.483l-2.184-0.068l-0.465,0.507
			c-0.944,1.03-2.214,3.504-0.981,6.241c3.295,7.319,22.268,11.018,56.431,11.019c2.897,0,5.9-0.027,9.016-0.08
			c6.926-0.119,13.327-0.179,19.518-0.236c31.688-0.296,52.621-0.491,69.899-8.025c17.338-7.561,30.633-22.591,45.887-51.879
			c28.641-54.991,46.994-57.121,50.494-56.952c0.702,0.394,1.384,0.774,2.048,1.14c0.342,1.443,0.724,3.098,1.133,4.956
			c0.261,1.151,0.523,2.378,0.774,3.677c0.126,0.649,0.326,1.294,0.548,1.949c0.21,0.659,0.384,1.344,0.574,2.041
			c0.381,1.393,0.773,2.845,1.124,4.361c0.372,1.511,0.751,3.074,1.072,4.694c0.351,1.615,0.693,3.276,0.968,4.985
			c0.149,0.853,0.299,1.715,0.451,2.586c0.116,0.874,0.233,1.757,0.352,2.647c0.11,0.89,0.254,1.786,0.339,2.692
			c0.075,0.906,0.15,1.819,0.226,2.737c0.202,1.837,0.18,3.694,0.238,5.566c0.051,0.939-0.013,1.871-0.06,2.808
			c-0.046,0.937-0.091,1.876-0.137,2.818l-0.379,2.786c-0.129,0.947-0.235,1.831-0.459,2.794c-1.505,7.481-4.254,14.64-7.386,21.134
			c-1.545,3.266-3.178,6.375-4.55,9.515c-0.679,1.573-1.289,3.164-1.694,4.824c-0.413,1.646-0.567,3.425-0.242,5.132
			c0.06,0.427,0.213,0.836,0.32,1.246l0.231,0.589l0.115,0.292l0.029,0.073c-0.042-0.078,0.073,0.148,0.067,0.135l0.016,0.029
			l0.061,0.116c0.158,0.311,0.321,0.614,0.489,0.91c0.089,0.148,0.166,0.289,0.273,0.435l0.4,0.465
			c0.27,0.298,0.537,0.591,0.8,0.881c0.279,0.251,0.567,0.468,0.844,0.694c0.531,0.477,1.161,0.775,1.719,1.118
			c2.352,1.215,4.597,1.404,6.34,1.421c1.358,0.002,5.318-0.519,7.48-0.847c1.778,1.153,3.761,2.421,5.971,3.791
			c1.642,1.008,3.39,2.081,5.232,3.213c1.851,1.119,3.938,2.032,6.016,3.171c2.114,1.072,4.317,2.188,6.596,3.344
			c2.304,1.109,4.668,2.292,7.131,3.443c2.477,1.125,4.984,2.353,7.62,3.463c1.311,0.569,2.636,1.144,3.974,1.725
			c1.344,0.567,2.721,1.099,4.098,1.657c2.741,1.149,5.615,2.124,8.496,3.173c1.447,0.51,2.941,0.929,4.422,1.401
			c0.743,0.23,1.488,0.461,2.234,0.692l2.293,0.567c1.532,0.354,3.072,0.803,4.615,1.082c1.523,0.312,3.085,0.603,4.639,0.89
			c3.106,0.565,6.235,1.065,9.369,1.519c6.269,0.907,12.566,1.601,18.783,2.081c6.217,0.478,12.353,0.76,18.318,0.73
			c2.987-0.034,5.921-0.109,8.844-0.434c0.732-0.082,1.462-0.178,2.207-0.32c0.747-0.142,1.481-0.293,2.352-0.661l0.332-0.154
			c0.11-0.069-0.131,0.099,0.268-0.165l0.051-0.04l0.102-0.081l0.204-0.161c0.072-0.057,0.223-0.228,0.324-0.347
			c0.516-0.6,0.608-0.974,0.819-1.413c0.068-0.203,0.109-0.398,0.164-0.597c0.576,0.193,1.295,0.432,2.154,0.711
			c1.199,0.379,2.648,0.89,4.354,1.298c0.852,0.222,1.759,0.459,2.714,0.709c0.953,0.288,2.003,0.231,3.077,0.364
			c1.078,0.093,2.201,0.19,3.364,0.291c1.174,0.034,2.387,0.07,3.634,0.106c1.247,0.035,2.548-0.077,3.867-0.113
			c0.66-0.014,1.336-0.146,2.014-0.216c0.68-0.101,1.363-0.129,2.057-0.318c0.693-0.165,1.393-0.3,2.094-0.499
			c0.699-0.26,1.408-0.474,2.107-0.79c1.38-0.675,2.813-1.559,3.841-3.073c0.251-0.381,0.483-0.777,0.637-1.238
			c0.06-0.138,0.094-0.294,0.134-0.445c2.266-1.142,5.859-3.237,7.172-5.601c1.206-2.171,0.215-10.065-4.084-17.493
			c-0.259-0.447-0.537-0.9-0.826-1.354c0.086-0.028,0.169-0.05,0.258-0.081l0.56-0.217l0.069-0.028
			c0.107-0.064-0.142,0.105,0.258-0.152l0.089-0.069l0.178-0.137c0.036-0.03,0.046-0.029,0.102-0.085l0.166-0.174
			c0.109-0.119,0.214-0.245,0.311-0.375c0.229-0.294,0.26-0.435,0.371-0.643c0.139-0.293,0.235-0.571,0.316-0.844
			c0.461,0.164,1.008,0.355,1.654,0.578c1.035,0.345,2.284,0.812,3.758,1.188c0.736,0.204,1.519,0.422,2.345,0.651
			c0.823,0.264,1.733,0.199,2.664,0.315c0.934,0.08,1.906,0.163,2.913,0.25c1.017,0.03,2.068,0.061,3.149,0.093
			c1.079,0.047,2.21-0.061,3.354-0.087c0.571-0.002,1.16-0.108,1.749-0.171c0.591-0.087,1.184-0.112,1.789-0.254
			c0.604-0.135,1.214-0.272,1.828-0.41c0.614-0.198,1.232-0.425,1.851-0.645c1.214-0.597,2.501-1.263,3.485-2.577
			c0.332-0.488,0.631-1.004,0.82-1.615c1.997-0.994,5.087-2.781,6.238-4.808c1.063-1.871,0.313-8.384-3.325-14.739
			c-4.891-8.542-15.78-18.798-39.884-19.142c-4.659-0.064-8.902,0.404-12.769,1.276c-5.353-0.665-42.814-5.159-71.485-4.439
			c0.112-22.133,9.211-36.531,11.742-40.102c7.093-5.197,23.323-19.237,33.983-45.188c0.809-1.969,1.479-3.952,2.038-5.944
			c0.943-0.299,1.663-0.657,2.086-1.08c3.584-3.584,6.773-28.184,6.773-45.061c0-5.683-1.799-10.823-4.285-15.691
			c0.919-1.116,3.536-4.235,7.513-8.535c3.641,6.122,8.51,14.832,9.069,17.311c-0.233,0.191-0.468,0.396-0.703,0.616
			c-0.5,0.439-0.957,0.955-1.464,1.501c-0.242,0.277-0.414,0.607-0.579,0.95c-0.179,0.337-0.36,0.677-0.528,1.03
			c-0.733,1.396-1.332,2.964-1.923,4.628c-0.56,1.638-1.112,3.336-1.677,5.137c-0.564,1.788-1.115,3.657-1.608,5.593
			c-0.377,1.501-0.722,3.044-0.95,4.643l-0.042-0.021c-0.098,0.196-2.408,4.857-2.408,8.421c0,3.978,7.475,14.188,12.406,14.497
			c0.153,0.01,0.313,0.015,0.48,0.015c5.005,0,16.277-4.243,16.857-10.626c0.132-1.453,1.206-4.722,2.448-8.507
			c3.312-10.088,7.848-23.903,4.4-30.8c-3.835-7.67-11.999-28.086-14.16-33.525c4.797-4.209,10.068-8.505,15.699-12.591
			c26.341-19.11,26.94-51.925,13.918-74.464c-4.174-7.224-8.772-13.569-12.828-19.167c-8.001-11.042-14.439-19.959-14.197-30.109
			c2.897,0.663,5.814,0.996,8.635,0.997c4.815,0.001,9.35-0.964,13.035-2.891c4.067-2.126,6.551-4.85,7.381-8.096
			c0.857-3.349-0.338-6.237-0.975-7.452c2.185-0.999,3.944-2.401,5.221-4.244c1.413-2.038,2.109-4.384,2.36-6.76
			c6.202-12.852,3.126-20.344-1.419-31.381c-0.927-2.252-1.887-4.581-2.858-7.173c-1.133-3.021-1.792-5.432-2.15-7.513
			c0.154-0.889,0.237-1.876,0.202-3.002l-0.002-0.135c-0.02-1.319-0.126-2.804-0.39-4.283c0.057-0.584,0.122-1.172,0.189-1.777
			c0.205-1.84,0.421-3.789,0.452-6.13c0.121,0.262,0.233,0.51,0.339,0.724c0.29,0.723,0.455,1.137,0.455,1.137
			s0.016-0.111,0.046-0.321c0.018-0.209,0.077-0.525,0.086-0.925c-0.016-0.393,0.016-0.895-0.07-1.446
			c-0.038-0.279-0.078-0.576-0.121-0.889c-0.054-0.312-0.149-0.626-0.229-0.965c-0.166-0.655-0.392-1.356-0.7-2.067
			c-0.183-2.012-0.506-4.287-1.042-6.93c-1.144-5.642-5.445-10.197-10.999-13.829c23.527-8.854,27.498-31.576,30.421-48.375
			c1.584-9.101,2.952-16.96,6.803-20.082C581.417,129.25,581.592,127.133,581.041,125.728z M521.775,164.302
			c6.755-19.344,16.853-31.425,30.152-36.182c-7.002,6.907-8.477,19.773-9.731,36.911c-1.606,21.956-11.215,32.993-14.396,36.08
			c-5.128-2.378-10.577-4.179-15.31-5.49C513.446,191.406,516.181,180.322,521.775,164.302z M468.143,202.355
			c-0.646-0.289-1.278-0.606-1.908-0.927c-0.127-0.168-0.251-0.319-0.378-0.49c-1.186-1.597-2.386-3.338-3.573-5.217
			c-1.196-1.87-2.589-3.747-3.798-5.866c-4.986-8.362-9.349-19.074-11.61-31.085c-1.127-5.994-1.762-12.307-1.58-18.677
			c0.098-3.18,0.4-6.381,1.067-9.476c0.335-1.543,0.762-3.064,1.344-4.477c0.577-1.399,1.33-2.742,2.27-3.591
			c0.963-0.851,1.854-1.018,2.967-0.524c1.113,0.5,2.2,1.591,3.129,2.774c0.47,0.6,0.909,1.239,1.319,1.884l1.298,2.094
			c0.862,1.416,1.786,2.792,2.71,4.158c3.712,5.452,7.967,10.471,12.656,14.712c1.305,1.206,2.646,2.331,3.995,3.413l2.172,2.659
			c0.852,1.143,1.756,2.245,2.561,3.413c0.821,1.156,1.645,2.307,2.364,3.52c0.773,1.181,1.438,2.413,2.113,3.637
			c0.342,0.609,0.595,1.257,0.898,1.882l0.436,0.944l0.355,0.969c0.214,0.651,0.524,1.275,0.681,1.937l0.526,1.966l0.309,1.986
			c0.067,0.661,0.051,1.323,0.086,1.981c0.017,0.659-0.113,1.302-0.144,1.954c-0.04,0.653-0.273,1.267-0.392,1.903
			c-0.358,1.245-0.89,2.446-1.529,3.481l-0.224,0.407l-0.321,0.425l-0.654,0.853l-1.306,1.684c-0.484,0.583-0.901,1.215-1.305,1.857
			l-0.611,0.956l-0.537,1c-0.176,0.335-0.363,0.664-0.528,1.004l-0.456,1.038c-0.323,0.684-0.57,1.398-0.818,2.11
			c-0.504,1.423-0.823,2.899-1.095,4.373c-0.229,1.483-0.386,2.974-0.415,4.471c-0.015,0.95,0.014,1.876,0.1,2.823l-1.182-0.263
			l-1.401-0.369c-0.465-0.13-0.939-0.234-1.401-0.371c-0.921-0.284-1.865-0.517-2.773-0.845c-0.92-0.299-1.831-0.623-2.729-0.981
			c-0.457-0.162-0.906-0.342-1.35-0.534C469.034,202.736,468.578,202.566,468.143,202.355z M281.696,633.114
			c-29.956,57.515-50.921,57.71-113.154,58.291c-6.196,0.058-12.605,0.118-19.541,0.236c-52.432,0.906-61.283-6.115-62.66-9.171
			c-0.464-1.031-0.172-1.937,0.114-2.472l0.686,0.023c41.035,1.298,97.228,3.081,128.743-29.394
			c18.229-18.784,26.294-47.352,23.973-84.913c-3.745-60.604,16.048-92.465,33.312-108.522
			c14.124-13.137,28.909-18.145,35.378-19.822c-0.707,1.165-1.687,3.252-2.305,4.668c-0.353,0.269-0.704,0.536-1.062,0.81
			c-4.03,3.166-8.135,6.972-11.869,11.54c-3.711,4.578-7.047,9.901-9.597,15.818c-2.57,5.909-4.221,12.424-5.016,19.111
			l-0.276,2.517c-0.021,0.232-0.05,0.372-0.065,0.679l-0.028,0.622l-0.056,1.245l-0.113,2.496c-0.016,0.844,0.025,1.718,0.036,2.577
			c0.023,0.862,0.026,1.729,0.068,2.588l0.226,2.559c0.104,1.713,0.414,3.403,0.673,5.098c1.119,6.776,3.378,13.333,6.367,19.365
			c2.991,6.037,6.66,11.594,10.712,16.526c8.1,9.9,17.279,17.577,25.435,23.582c1.012,0.767,2.041,1.46,3.012,2.19
			c0.967,0.735,1.956,1.387,2.945,1.987c1.24,0.753,2.432,1.456,3.601,2.137C324.163,576.31,307.165,584.213,281.696,633.114z
			 M525.028,702.286c-0.736,1.323-2.629,2.642-4.529,3.657l0-0.002l-0.11-1.091l-0.178-1.087c-0.133-0.723-0.209-1.455-0.391-2.172
			c-0.58-2.89-1.563-5.717-2.842-8.35c-1.287-2.632-2.927-5.05-4.804-7.126c-3.758-4.183-8.359-6.893-12.442-8.547
			c-0.511-0.214-1.016-0.407-1.509-0.599c-0.487-0.21-0.973-0.39-1.473-0.477c-0.992-0.201-1.938-0.344-2.826-0.457
			c-1.773-0.236-3.325-0.299-4.596-0.306c-1.271-0.014-2.266,0.072-2.94,0.129c-0.674,0.062-1.029,0.116-1.029,0.116
			s1.426,0.234,3.807,0.91c1.189,0.34,2.612,0.806,4.197,1.406c0.791,0.305,1.623,0.646,2.476,1.049
			c0.855,0.386,1.831,0.573,2.761,1.008c3.779,1.531,7.962,4.01,11.346,7.778c1.692,1.873,3.169,4.049,4.337,6.437
			c1.16,2.391,2.065,4.971,2.601,7.652c0.169,0.66,0.237,1.347,0.362,2.018l0.168,1.011l0.102,1.022l0.101,1.02l0.051,0.509
			c0.015,0.158,0.045,0.386,0.02,0.401c-0.008,0.022-0.004,0.031-0.008,0.064l-0.037,0.149c-0.012,0.099-0.043,0.202-0.096,0.306
			c-0.061,0.212-0.191,0.416-0.325,0.62c-0.549,0.821-1.528,1.485-2.596,2.002c-0.546,0.246-1.15,0.422-1.714,0.641
			c-0.597,0.168-1.22,0.284-1.82,0.43c-0.592,0.169-1.239,0.192-1.851,0.284c-0.622,0.062-1.223,0.187-1.845,0.198
			c-1.242,0.03-2.445,0.14-3.637,0.106c-1.192-0.035-2.351-0.068-3.473-0.101c-1.125-0.098-2.212-0.192-3.256-0.283
			c-0.522-0.047-1.033-0.084-1.531-0.147c-0.495-0.089-0.982-0.163-1.466-0.155c-0.967-0.015-1.885-0.029-2.747-0.043
			c-1.731-0.007-3.239-0.107-4.487-0.156c-0.877-0.037-1.616-0.065-2.216-0.085c0.099-0.44,0.171-0.872,0.201-1.289
			c0.252-3.031-0.293-5.773-1.024-8.354c-0.774-2.566-1.842-4.935-3.107-7.069c-1.299-2.103-2.651-4.104-4.34-5.633
			c-1.675-1.531-3.405-2.814-5.149-3.799c-3.478-1.999-6.839-2.957-9.59-3.462c-1.373-0.293-2.629-0.359-3.703-0.463
			c-1.085-0.023-1.999-0.089-2.742-0.061c-1.482,0.052-2.272,0.08-2.272,0.08s0.784,0.078,2.255,0.224
			c0.733,0.071,1.626,0.258,2.674,0.422c0.522,0.098,1.074,0.253,1.665,0.383c0.595,0.119,1.214,0.296,1.86,0.503
			c2.587,0.785,5.65,2.064,8.623,4.259c1.493,1.082,2.924,2.428,4.265,3.966c1.315,1.553,2.763,3.151,3.873,5.113
			c1.143,1.929,2.112,4.08,2.81,6.391c0.663,2.299,1.123,4.828,0.914,7.209c-0.038,0.598-0.175,1.138-0.324,1.615
			c-0.081,0.18-0.231,0.46-0.173,0.386c-0.008,0.014,0.062,0.003,0.001,0.055l-0.204,0.161l-0.034,0.027l-0.109,0.046
			c-0.407,0.175-1.047,0.339-1.679,0.45c-0.635,0.122-1.309,0.212-1.988,0.287c-2.729,0.305-5.611,0.383-8.528,0.415
			c-5.848,0.029-11.918-0.248-18.066-0.721c-6.15-0.475-12.385-1.162-18.586-2.059c-2.635-0.381-5.261-0.805-7.875-1.264
			c0.796-2.922,3.661-12.125,10.274-21.154c10.586-14.457,25.259-21.626,43.662-21.382c24.41,0.356,36.1,10.236,41.609,18.463
			C525.255,693.946,525.409,701.323,525.028,702.286z M519.782,643.679c21.068,0.301,31.192,8.594,35.976,15.497
			c4.701,6.785,4.939,13.123,4.636,13.97c-0.507,0.888-2.029,1.946-3.608,2.835c-0.049-0.475-0.108-0.949-0.199-1.422
			c-0.115-0.629-0.192-1.265-0.341-1.89c-0.518-2.513-1.381-4.974-2.52-7.259c-1.143-2.284-2.602-4.374-4.262-6.16
			c-3.327-3.598-7.36-5.895-10.92-7.298c-0.448-0.173-0.886-0.344-1.315-0.509c-0.422-0.185-0.847-0.335-1.284-0.4
			c-0.867-0.154-1.693-0.257-2.466-0.336c-1.545-0.169-2.895-0.19-3.998-0.169c-2.209,0.048-3.44,0.297-3.44,0.297
			s1.232,0.24,3.283,0.858c1.024,0.313,2.248,0.737,3.61,1.272c0.68,0.271,1.394,0.575,2.125,0.932
			c0.735,0.338,1.579,0.477,2.381,0.846c3.261,1.285,6.881,3.363,9.825,6.549c2.964,3.157,5.093,7.418,6.047,12.007
			c0.137,0.568,0.205,1.155,0.312,1.731c0.113,0.575,0.177,1.16,0.229,1.746l0.063,0.62c-0.005,0.002-0.01,0.004-0.015,0.007
			l0.021,0.051l0.02,0.198l0.045,0.437c0.002,0.023,0.01,0.104,0.008,0.078c0,0.029,0.006,0.097,0,0.093
			c-0.008,0.005-0.012,0.009-0.01,0.014c-0.022,0.243-0.209,0.612-0.42,0.926c-0.47,0.661-1.365,1.163-2.257,1.604
			c-0.497,0.172-0.991,0.344-1.482,0.514c-0.526,0.117-1.049,0.233-1.568,0.349c-0.515,0.125-1.071,0.146-1.596,0.224
			c-0.534,0.055-1.05,0.156-1.59,0.155c-1.07,0.021-2.102,0.127-3.132,0.081c-1.028-0.03-2.027-0.059-2.994-0.088
			c-0.971-0.083-1.909-0.164-2.809-0.242c-0.45-0.04-0.892-0.07-1.32-0.126c-0.427-0.087-0.847-0.145-1.266-0.128
			c-0.837,0.005-1.631,0.01-2.377,0.015c-1.498,0.025-2.806-0.031-3.889-0.046c-0.661-0.011-1.225-0.018-1.706-0.022
			c0.052-0.256,0.095-0.509,0.129-0.758c0.289-2.703-0.198-5.098-0.838-7.358c-0.671-2.249-1.626-4.31-2.744-6.167
			c-1.155-1.825-2.341-3.574-3.845-4.881c-1.489-1.31-3.025-2.394-4.56-3.226c-3.069-1.678-6.002-2.463-8.399-2.866
			c-2.406-0.419-4.317-0.394-5.601-0.38c-1.284,0.059-1.969,0.091-1.969,0.091s0.679,0.074,1.953,0.213
			c0.634,0.067,1.408,0.235,2.314,0.385c0.452,0.085,0.929,0.225,1.44,0.34c0.514,0.106,1.05,0.258,1.608,0.441
			c2.237,0.684,4.88,1.795,7.448,3.676c1.286,0.933,2.524,2.084,3.678,3.404c1.13,1.334,2.404,2.677,3.367,4.357
			c0.992,1.648,1.844,3.487,2.435,5.47c0.572,1.963,0.962,4.149,0.736,6.13c-0.06,0.476-0.165,0.953-0.315,1.243
			c-0.017,0.034-0.046,0.102-0.06,0.133c0.008-0.009,0.021-0.016,0.039-0.016c0.01,0,0.02,0.002,0.031,0.005
			c0.011,0.004-0.048,0.04-0.068,0.059l-0.13,0.1l-0.02,0.006l-0.286,0.094l-0.282,0.108c-0.103,0.036-0.258,0.055-0.384,0.083
			l-0.314,0.063c-6.424-8.493-18.463-17.115-40.917-17.878C486.617,654.301,498.65,643.351,519.782,643.679z M478.52,551.085
			c-13.266,32.299-40.266,49.337-40.494,49.472l4.305-0.584c-3.78,6.28-9.696,19.066-9.762,37.64
			c-2.859,0.112-5.614,0.281-8.216,0.518c0,0,56.763,4.664,75.189,6.192c-11.091,4.562-18.304,12.662-22.833,19.984
			c-4.376,0.032-8.425,0.487-12.171,1.28c-5.295-0.631-21.155-2.429-39.698-3.711c-0.411-0.204-0.831-0.412-1.235-0.612
			c-1.832-0.899-3.509-1.911-5.21-2.672c-1.699-0.768-3.31-1.496-4.825-2.18c-3.019-1.401-5.65-2.623-7.818-3.629
			c-4.325-2.052-6.797-3.225-6.797-3.225s0.562,0.392,1.615,1.126c1.021,0.699,2.504,1.733,4.406,2.979
			c-1.255,0.234-8.48,1.314-11.197-4.331c-1.485-3.088,0.57-7.177,3.414-12.836c2.91-5.791,6.532-12.998,8.458-22.832
			c0.695-3.55,0.885-7.404,0.732-11.351c0.932-0.873,1.875-1.799,2.871-2.747c0.777-0.736,1.459-1.593,2.177-2.452
			c0.7-0.874,1.475-1.719,2.195-2.641c1.418-1.859,2.998-3.72,4.412-5.808c0.729-1.028,1.47-2.074,2.222-3.136
			c0.702-1.095,1.415-2.207,2.138-3.334c2.107-3.251,4.067-6.771,5.961-10.452c15.267-8.365,26.619-20.733,30.278-25.016
			c3.412,0.497,7.964,0.8,12.376,0.8c3.24,0,6.397-0.163,8.962-0.53C479.546,548.365,479.077,549.729,478.52,551.085z
			 M391.077,650.633c2.38,4.946,7.42,6.269,11.351,6.269c1.148,0,4.751-0.453,6.068-0.949c1.221,0.784,2.548,1.622,3.976,2.505
			c1.425,0.873,2.942,1.802,4.54,2.782c0.09,0.054,0.187,0.102,0.278,0.155c-12.047-0.702-24.737-1.11-36.095-0.801
			c0.064-27.539,12.333-46.439,14.634-49.728c0.442-0.306,0.897-0.624,1.379-0.972c1.801-1.345,3.938-2.966,6.207-4.934
			c-0.005,2.834-0.21,5.578-0.71,8.128c-1.846,9.431-5.366,16.434-8.194,22.061C391.284,641.574,388.952,646.216,391.077,650.633z
			 M526.518,491.645c2.896,5.792-1.595,19.471-4.566,28.522c-1.353,4.122-2.423,7.378-2.586,9.171
			c-0.399,4.385-10.639,8.095-14.163,7.889c-3.138-0.196-9.594-9.001-9.594-11.503c0-0.232,0.025-0.483,0.052-0.734
			c0.056,0.12,0.102,0.242,0.166,0.36c0.124,0.278,0.286,0.539,0.479,0.787l0.275,0.376l0.139,0.186l0.21,0.216l0.129,0.128
			l0.071,0.068l0.14,0.113c0.189,0.141,0.393,0.301,0.591,0.393c0.386,0.201,0.831,0.33,1.273,0.362
			c0.895,0.056,1.634-0.231,2.187-0.534c0.556-0.314,1.012-0.668,1.415-1.029c1.572-1.46,2.611-3.003,3.598-4.465
			c0.967-1.467,1.797-2.877,2.553-4.166c0.19-0.322,0.367-0.64,0.563-0.935c0.209-0.288,0.381-0.586,0.49-0.906
			c0.12-0.307,0.236-0.605,0.35-0.896c0.127-0.295,0.25-0.581,0.369-0.858c0.472-1.056,0.948-1.998,1.379-2.735
			c0.441-0.734,0.817-1.309,1.104-1.679c0.285-0.372,0.467-0.55,0.467-0.55s-0.973,0.357-2.42,1.475
			c-0.72,0.563-1.552,1.28-2.434,2.229c-0.212,0.229-0.43,0.465-0.656,0.707c-0.223,0.257-0.453,0.521-0.688,0.793
			c-0.239,0.261-0.421,0.563-0.572,0.889c-0.165,0.319-0.355,0.63-0.541,0.951c-0.75,1.279-1.558,2.649-2.469,4.03
			c-0.908,1.363-1.931,2.812-3.097,3.884c-0.288,0.261-0.584,0.476-0.849,0.629c-0.268,0.153-0.471,0.181-0.536,0.174
			c-0.036-0.004-0.057-0.011-0.101-0.03c-0.024-0.003,0.001-0.013-0.014-0.001l-0.008,0.009l-0.06-0.058l-0.129-0.128l-0.056-0.055
			l-0.065-0.095l-0.153-0.214c-0.113-0.134-0.209-0.284-0.278-0.458c-0.702-1.281-0.763-3.136-0.606-4.958
			c0.167-1.844,0.574-3.734,1.04-5.582c0.471-1.851,1.007-3.673,1.562-5.433c0.549-1.749,1.109-3.473,1.653-5.062
			c0.551-1.548,1.105-3.001,1.76-4.242c0.256-0.668,0.754-1.141,0.964-1.754c0.251-0.579,0.479-1.155,0.755-1.646
			c0.533-1.001,1.083-1.849,1.64-2.459c0.023-0.025,0.045-0.046,0.068-0.071l0.135-0.027c-0.006-0.028-0.016-0.062-0.022-0.091
			c0.485-0.506,0.936-0.877,1.287-1.087c0.392-0.243,0.64-0.32,0.64-0.32s-0.255-0.05-0.744,0.011
			c-0.37,0.048-0.883,0.157-1.481,0.393c-1.587-4.491-7.77-14.969-9.578-17.992c4.039-4.264,9.158-9.383,15.101-14.735
			C515.301,465.548,522.789,484.188,526.518,491.645z M529.401,352.317c4.014,5.54,8.563,11.818,12.659,18.908
			c12.35,21.375,11.822,52.467-13.082,70.536c-21.711,15.75-38.188,34.592-42.606,39.846c-1.315-2.311-2.738-4.571-4.15-6.808
			c-4.378-6.935-8.515-13.484-8.363-20.291c0.314-14.098,14.247-28.886,14.247-28.886c-0.69,0.535-16.901,13.283-17.246,28.819
			c-0.171,7.71,4.199,14.631,8.826,21.959c4.674,7.402,9.507,15.057,9.507,23.741c0,19.103-3.677,40.723-5.894,42.94
			c-2.354,2.353-25.379,1.63-28.107-0.188c-1.078-0.719-2.64-6.855-1.837-11.994c0.317-2.033,0.988-3.432,1.751-3.649
			c0.682-0.195,1.254-0.137,1.805,0.186c1.399,0.814,2.633,3.977,2.997,5.198c-0.043,0.039-0.089,0.09-0.131,0.127
			c-0.425,0.344-0.772,0.625-1.031,0.779c-0.251,0.175-0.385,0.269-0.385,0.269s0.159-0.039,0.456-0.111
			c0.302-0.069,0.737-0.196,1.276-0.43c0.271-0.114,0.552-0.281,0.875-0.446c0.298-0.199,0.637-0.41,0.948-0.699
			c0.658-0.542,1.296-1.323,1.761-2.291c0.481-0.962,0.803-2.093,0.935-3.282c0.145-1.189,0.158-2.436,0.051-3.691
			c-0.201-2.515-0.772-5.071-1.301-7.552c-0.275-1.239-0.525-2.464-0.716-3.646c-0.085-0.582-0.172-1.194-0.212-1.717
			c-0.029-0.25-0.039-0.553-0.043-0.867l-0.006-0.229l0.007-0.167l0.018-0.407c0.013-1.091,0.227-2.116,0.487-3.082
			c0.326-0.94,0.696-1.829,1.167-2.596c0.849-1.395,1.841-2.43,2.645-3.155c1.05,0.546,1.93,0.979,2.575,1.316
			c0.92,0.469,1.41,0.719,1.41,0.719s-1.733-1.357-4.766-3.731c-1.505-1.193-3.332-2.641-5.428-4.302
			c-1.05-0.824-2.139-1.738-3.297-2.683c-0.572-0.483-1.197-0.923-1.848-1.356c-0.645-0.442-1.29-0.917-1.954-1.393
			c-2.636-1.931-5.467-4.057-8.358-6.422c-2.897-2.357-5.888-4.919-8.797-7.742c-2.91-2.818-5.751-5.896-8.234-9.281
			c-2.472-3.371-4.621-7.102-5.6-11.084c-0.491-1.982-0.674-4.014-0.458-5.991c0.21-1.979,0.822-3.893,1.743-5.657l0.741-1.295
			l0.818-1.197c0.301-0.407,0.662-0.828,0.989-1.24l0.989-1.196c0.684-0.828,1.382-1.639,2.042-2.466
			c0.646-0.836,1.287-1.667,1.923-2.49c4.996-6.646,9.1-13.192,12.506-18.855c0.419-0.712,0.828-1.41,1.247-2.081
			c0.427-0.666,0.828-1.327,1.146-2.012c0.642-1.366,1.252-2.661,1.824-3.878c1.143-2.433,2.07-4.587,2.828-6.361
			c0.767-1.769,1.314-3.186,1.7-4.144c0.376-0.962,0.577-1.476,0.577-1.476s-1.202,1.844-3.304,5.07
			c-1.061,1.601-2.349,3.545-3.826,5.774c-0.749,1.105-1.546,2.281-2.386,3.521c-0.833,1.242-1.517,2.657-2.382,4.048
			c-3.37,5.605-7.436,12.083-12.324,18.584c-0.62,0.803-1.246,1.614-1.876,2.43c-0.642,0.804-1.317,1.587-1.98,2.39l-1.039,1.256
			c-0.334,0.421-0.67,0.811-1.006,1.262l-1.001,1.456c-0.301,0.497-0.576,1.004-0.864,1.509c-1.078,2.059-1.817,4.357-2.068,6.723
			c-0.26,2.366-0.035,4.765,0.527,7.033c0.568,2.268,1.42,4.439,2.498,6.442c1.066,2.01,2.265,3.924,3.595,5.697
			c2.626,3.579,5.574,6.763,8.566,9.663c2.993,2.903,6.045,5.517,8.993,7.916c2.944,2.406,5.813,4.562,8.482,6.517
			c0.67,0.485,1.331,0.953,1.962,1.432c0.619,0.495,1.255,0.935,1.915,1.307c1.305,0.763,2.531,1.502,3.706,2.158
			c2.328,1.347,4.393,2.456,6.094,3.366c0.171,0.093,0.323,0.172,0.487,0.26c-0.93,0.48-1.862,1.231-3.101,2.608
			c-0.703,0.764-1.348,1.713-1.873,2.809c-0.475,1.106-0.925,2.34-1.053,3.659l-0.068,0.495c-0.011,0.1-0.023,0.129-0.033,0.287
			l-0.011,0.229c-0.017,0.298-0.029,0.611-0.02,0.979c0.002,0.715,0.055,1.351,0.13,2.023c0.142,1.324,0.399,2.619,0.664,3.891
			c0.551,2.538,1.202,4.981,1.593,7.249c0.189,1.133,0.338,2.218,0.353,3.233c0.007,1.012-0.079,1.953-0.303,2.784
			c-0.03,0.107-0.077,0.198-0.111,0.302c-0.578-1.479-1.673-3.566-3.532-4.653c-1.253-0.734-2.688-0.898-4.149-0.483
			c-1.406,0.402-3.222,1.781-3.891,6.072c-0.724,4.638,0.159,12.966,3.138,14.952c0.311,0.208,0.807,0.404,1.429,0.59
			c-3.074,3.742-11.441,13.068-24.048,20.581c0.464-1.043,0.914-2.097,1.379-3.154c0.577-1.383,1.214-2.679,1.753-4.16
			c0.5-1.41,1.066-2.756,1.483-4.283c0.224-0.746,0.448-1.493,0.673-2.242c0.2-0.751,0.361-1.507,0.543-2.263
			c0.743-3.019,1.142-6.137,1.432-9.268c0.164-3.14,0.249-6.308-0.063-9.454c-0.473-6.303-2.014-12.488-4.238-18.266
			c-2.204-5.795-5.158-11.163-8.48-16.009c-6.645-9.726-14.691-17.328-22.056-23.073c-1.89-1.377-3.59-2.855-5.438-3.934
			c-1.799-1.148-3.596-2.087-5.232-3.041c-1.684-0.876-3.239-1.727-4.711-2.444c-1.481-0.702-2.818-1.383-4.06-1.93
			c-1.242-0.542-2.351-1.025-3.315-1.446c-0.978-0.386-1.811-0.714-2.486-0.98c-1.349-0.526-2.068-0.807-2.068-0.807
			s0.674,0.376,1.938,1.082c0.629,0.354,1.406,0.791,2.318,1.305c0.899,0.534,1.933,1.148,3.09,1.836
			c1.159,0.681,2.4,1.507,3.771,2.363c1.362,0.871,2.79,1.884,4.331,2.929c1.492,1.122,3.13,2.235,4.747,3.555
			c0.809,0.659,1.696,1.251,2.587,1.883c0.887,0.636,1.775,1.315,2.688,1.999c7.18,5.6,15.001,13.001,21.417,22.393
			c3.208,4.679,6.048,9.846,8.159,15.396c2.131,5.535,3.599,11.435,4.047,17.431c0.299,2.993,0.214,6.004,0.061,8.989
			c-0.279,2.976-0.655,5.941-1.364,8.815c-0.173,0.718-0.326,1.444-0.515,2.151c-0.209,0.697-0.418,1.393-0.626,2.087
			c-0.367,1.379-0.958,2.798-1.451,4.19c-0.475,1.314-1.137,2.68-1.69,4.003c-0.585,1.328-1.135,2.66-1.735,3.956
			c-2.509,5.132-5.088,10.025-7.937,14.419c-0.706,1.102-1.403,2.188-2.089,3.259c-0.735,1.037-1.459,2.058-2.171,3.063
			c-1.38,2.042-2.924,3.856-4.307,5.672c-1.423,1.786-2.953,3.355-4.255,4.978c-1.34,1.592-2.571,3.148-3.844,4.504
			c-0.626,0.69-1.231,1.358-1.816,2.003c-0.606,0.625-1.19,1.227-1.752,1.806c-1.102,1.185-2.206,2.174-3.16,3.122
			c-1.975,1.814-3.557,3.225-4.689,4.12c-1.117,0.916-1.752,1.358-1.752,1.358s0.604-0.305,1.688-0.953
			c-2.545,3.251-13.49,18.758-13.519,47.175c-3.37,0.133-6.604,0.334-9.641,0.619c0,0,67.331,5.275,87.372,6.865
			c-25.105,9.972-33.286,36.088-34.648,41.125c-1.003-0.188-2.004-0.371-3.015-0.578c-1.531-0.277-2.985-0.707-4.474-1.05
			l-2.214-0.546c-0.728-0.226-1.455-0.451-2.18-0.676c-1.446-0.462-2.9-0.867-4.319-1.368c-2.83-1.032-5.647-1.985-8.355-3.121
			c-1.359-0.551-2.716-1.074-4.044-1.635c-1.323-0.574-2.634-1.144-3.93-1.707c-2.605-1.096-5.095-2.316-7.548-3.43
			c-2.442-1.141-4.789-2.315-7.075-3.416c-2.264-1.148-4.452-2.257-6.552-3.322c-2.103-1.062-4.039-2.229-5.986-3.141
			c-1.944-0.92-3.789-1.793-5.522-2.614c-3.452-1.681-6.462-3.146-8.94-4.352c-2.473-1.227-4.415-2.191-5.74-2.849
			c-1.32-0.669-2.023-1.027-2.023-1.027s0.648,0.451,1.863,1.297c1.222,0.836,3.007,2.076,5.32,3.59
			c0.566,0.372,1.164,0.764,1.79,1.172c-2.222,0.143-5.594,0.349-6.734,0.132c-1.604-0.328-3.544-0.935-5.237-2.228
			c-0.391-0.361-0.842-0.662-1.175-1.109c-0.176-0.209-0.37-0.413-0.538-0.626c-0.136-0.219-0.273-0.44-0.412-0.665l-0.218-0.323
			l-0.232-0.444c-0.166-0.297-0.341-0.593-0.525-0.889l-0.054-0.091l-0.01-0.024l-0.083-0.196l-0.165-0.397
			c-0.063-0.281-0.179-0.549-0.214-0.846c-0.478-2.327,0.462-5.246,1.742-8.2c1.298-2.977,2.936-6.105,4.506-9.418
			c1.583-3.309,3.11-6.814,4.422-10.472c1.305-3.656,2.408-7.475,3.194-11.346c0.218-0.929,0.355-1.972,0.487-2.947l0.402-2.971
			c0.049-0.99,0.097-1.978,0.146-2.963c0.049-0.985,0.114-1.968,0.063-2.941c-0.058-1.947-0.04-3.887-0.246-5.778
			c-0.078-0.948-0.156-1.891-0.234-2.826c-0.088-0.934-0.234-1.852-0.347-2.767c-0.122-0.914-0.242-1.82-0.362-2.718
			c-0.155-0.891-0.309-1.772-0.461-2.645c-0.282-1.75-0.631-3.445-0.989-5.091c-0.329-1.653-0.714-3.244-1.092-4.782
			c-0.358-1.543-0.756-3.019-1.143-4.435c-0.412-1.408-0.664-2.799-1.152-4.05c-0.481-1.252-0.96-2.431-1.424-3.532
			c-0.464-1.145-0.918-2.194-1.35-3.163c1.332,0.722,2.589,1.392,3.724,1.989c2.598,1.383,4.677,2.399,6.081,3.115
			c1.408,0.709,2.158,1.088,2.158,1.088s-2.787-1.878-7.665-5.164c-2.44-1.635-5.38-3.65-8.689-6.033
			c-1.658-1.187-3.4-2.478-5.214-3.863c-1.804-1.397-3.853-2.645-5.84-4.16c-8.029-5.908-17.021-13.444-24.883-23.056
			c-3.935-4.789-7.474-10.158-10.349-15.96c-2.873-5.799-5.034-12.07-6.102-18.548c-0.247-1.621-0.546-3.236-0.643-4.874
			l-0.218-2.447c-0.04-0.812-0.04-1.619-0.063-2.428c-0.01-0.812-0.053-1.608-0.039-2.43l0.113-2.496l0.056-1.245l0.028-0.622
			c0.003-0.108,0.039-0.378,0.057-0.559l0.266-2.418c0.765-6.422,2.342-12.647,4.795-18.284c2.434-5.645,5.614-10.722,9.163-15.102
			c3.572-4.369,7.512-8.025,11.392-11.073c0.95-0.789,1.959-1.462,2.916-2.154c0.98-0.661,1.942-1.3,2.848-1.973
			c1.838-1.309,3.616-2.514,5.341-3.569c3.445-2.115,6.582-3.77,9.218-5.028c5.281-2.515,8.51-3.513,8.51-3.513
			s-0.829,0.142-2.366,0.511c-1.534,0.375-3.784,0.957-6.583,1.922c-2.8,0.957-6.168,2.255-9.897,4.072
			c-1.78,0.853-3.634,1.85-5.56,2.94c11.49-17.921,44.672-28.279,74.201-37.49c23.98-7.479,46.631-14.544,56.777-24.906
			c20.171-20.599,19.864-74.701,19.199-92.198c11.4,9.959,30.895,19.924,33.251,21.1c0.072,0.119,0.139,0.238,0.214,0.356
			c4.591,7.182,11.853,11.95,19.546,14.345C514.011,331.073,520.865,340.536,529.401,352.317z M543.771,309.747
			c-0.621,2.372-2.591,4.441-5.856,6.148c-9.689,5.065-30.701,2.771-40.292-12.229c-3.975-6.216-4.011-13.158-0.096-18.568
			c4.181-5.779,11.739-8.326,20.129-6.95c0.354,1.024,1.121,2.256,2.301,3.689c2.943,3.572,9.758,9.556,16.783,9.556
			c0.077,0,0.153-0.001,0.231-0.003c0.164-0.003,0.321-0.018,0.481-0.028c-0.03,1.633-0.182,3.989-1.047,6.519
			c-0.44,1.267-1.126,2.534-2.051,3.661c-0.923,1.138-2.192,2.023-3.627,2.69c-1.446,0.667-3.109,1.002-4.835,1.184
			c-0.429,0.057-0.867,0.086-1.311,0.091c-0.443,0.01-0.882,0.048-1.333,0.02l-1.275-0.036l-1.413-0.151l-1.415-0.127l-0.707-0.062
			c-0.224-0.034-0.434-0.083-0.652-0.123c-0.863-0.176-1.727-0.317-2.581-0.508c-0.846-0.263-1.691-0.507-2.534-0.734
			c-0.816-0.293-1.605-0.63-2.395-0.933c-0.774-0.336-1.482-0.772-2.224-1.116c-0.718-0.384-1.369-0.846-2.037-1.249
			c-0.645-0.436-1.218-0.934-1.817-1.366c-0.569-0.467-1.086-0.959-1.606-1.412c-0.478-0.497-0.936-0.973-1.372-1.426
			c-0.408-0.484-0.796-0.942-1.16-1.373c-0.337-0.457-0.652-0.884-0.944-1.28c-0.273-0.412-0.525-0.79-0.752-1.131
			c-0.421-0.704-0.757-1.264-0.959-1.661c-0.201-0.397-0.297-0.616-0.297-0.616s0.042,0.234,0.144,0.673
			c0.112,0.435,0.279,1.076,0.576,1.867c0.16,0.391,0.338,0.825,0.531,1.297c0.211,0.465,0.475,0.95,0.741,1.482
			c0.304,0.51,0.628,1.053,0.97,1.626c0.386,0.543,0.8,1.114,1.246,1.7c0.485,0.551,0.973,1.15,1.52,1.731
			c0.58,0.544,1.17,1.13,1.823,1.674c0.68,0.507,1.353,1.078,2.1,1.573c0.762,0.468,1.542,0.96,2.369,1.388
			c0.846,0.386,1.701,0.805,2.585,1.178c0.903,0.316,1.825,0.621,2.76,0.913c0.959,0.236,1.95,0.421,2.934,0.629l0.739,0.146
			l0.706,0.076l1.413,0.149l1.415,0.125l1.56,0.024c0.493,0.019,0.994-0.028,1.49-0.05c0.495-0.016,0.991-0.059,1.486-0.132
			c1.977-0.223,3.926-0.793,5.672-1.695c0.976-0.5,1.86-1.14,2.636-1.861c0.575,0.025,1.148,0.049,1.697,0.049
			c2.508,0,4.741-0.271,6.716-0.789l-0.082,0.054C542.874,304.076,544.563,306.717,543.771,309.747z M520.561,277.415l0.318-1.24
			c0.249-0.3,0.582-0.562,1.018-0.782c3.006-1.516,9.282-0.682,15.26,2.031l0.71,0.322l0.673-0.397
			c2.663-1.573,7.347-3.429,8.94-2.42c0.642,0.406,0.715,1.501,0.649,2.411c-0.446,1.302-3.984,10.917-11.214,11.052
			c-0.06,0.001-0.12,0.001-0.18,0.001C529.426,288.393,521.642,280.122,520.561,277.415z M550.355,291.177
			c0,0,0.012,0.775-0.256,1.887c-0.29,1.43-0.805,2.795-1.637,3.993c-2.109,3.037-6.022,4.617-11.646,4.719
			c0.62-1.148,1.012-2.327,1.241-3.436c0.605-2.939,0.293-5.379-0.006-7.027c5.673-0.646,9.259-5.425,11.193-9.062
			C549.93,284.678,550.591,287.985,550.355,291.177z M544.847,250.432c0.362,1.247,0.803,2.589,1.358,4.069
			c0.988,2.636,1.956,4.987,2.893,7.262c3.563,8.653,6.034,14.669,3.802,22.893c-0.549-2.945-1.408-5.376-1.865-6.547
			c0.002-0.006,0.006-0.018,0.007-0.023l0.061-0.308c0.294-3.209-0.936-4.7-2.02-5.386c-0.433-0.274-0.913-0.458-1.422-0.576
			c-0.318-0.257-1.009-0.829-1.975-1.705c-0.681-0.601-1.474-1.368-2.356-2.269c-0.883-0.902-1.817-1.973-2.837-3.132
			c-0.48-0.604-0.981-1.233-1.499-1.884c-0.503-0.66-0.991-1.367-1.509-2.079c-0.984-1.459-1.97-3.031-2.844-4.73
			c-0.482-0.827-0.863-1.719-1.248-2.621c-0.048-0.109-0.096-0.22-0.144-0.33c0.25,0.25,0.708,0.653,1.389,1.039
			c0.544,0.309,1.219,0.618,1.984,0.816c0.379,0.112,0.78,0.191,1.192,0.249c0.41,0.065,0.833,0.068,1.254,0.104
			c0.42-0.02,0.842-0.031,1.253-0.069c0.409-0.055,0.811-0.125,1.194-0.202c0.38-0.096,0.742-0.207,1.084-0.308
			c0.339-0.111,0.646-0.257,0.931-0.376c0.578-0.223,1.007-0.526,1.317-0.704c0.301-0.194,0.474-0.305,0.474-0.305
			s-0.201,0.045-0.552,0.123c-0.351,0.074-0.826,0.237-1.419,0.341c-0.291,0.062-0.606,0.129-0.94,0.199
			c-0.337,0.048-0.69,0.096-1.051,0.164c-0.364,0.048-0.743,0.055-1.122,0.107c-0.382,0.024-0.77,0.02-1.157,0.031
			c-0.385-0.024-0.775-0.013-1.153-0.062c-0.377-0.05-0.754-0.068-1.11-0.148c-0.72-0.115-1.378-0.304-1.944-0.48
			c-0.824-0.271-1.43-0.555-1.698-0.688c-0.124-0.284-0.248-0.568-0.373-0.854c-0.054-0.155-0.108-0.313-0.161-0.469
			c1.65,0.971,3.776,1.554,5.844,1.554c0.838,0,1.666-0.095,2.448-0.298C541.904,252.578,543.517,251.949,544.847,250.432z
			 M535.935,238.999c-0.598,0-1.171,0.105-1.706,0.291c0.808,0.399,1.368,1.223,1.368,2.185c0,1.35-1.094,2.444-2.444,2.444
			c-0.369,0-0.706-0.103-1.017-0.25c0.048-2.216,0.551-4.844,1.726-7.009c1.159-2.136,2.706-3.315,4.599-3.504
			c1.218-0.124,2.201,0.163,2.996,0.872c1.01,0.9,1.76,2.524,2.191,4.654c0,0,0.532,3.486,0.172,7.215
			c-0.418,1.814-1.434,3.458-3.638,4.029c-1.772,0.458-3.78,0.09-5.282-0.577c0.335,0.067,0.681,0.104,1.036,0.104
			c2.887,0,5.227-2.34,5.227-5.227C541.162,241.34,538.821,238.999,535.935,238.999z M544.069,225.498
			c0.292,2.841,0.286,5.133,0.163,7.136c-0.245-0.297-0.493-0.59-0.78-0.846c-1.436-1.28-3.215-1.822-5.291-1.617
			c-2.899,0.29-5.298,2.04-6.937,5.059c-0.316,0.583-0.594,1.195-0.836,1.824c0.026-0.417,0.052-0.834,0.078-1.247
			c0.031-0.501,0.063-1,0.094-1.495c0.075-0.47,0.149-0.936,0.222-1.398c0.073-0.464,0.144-0.923,0.216-1.379
			c0.057-0.459,0.223-0.891,0.321-1.333c0.114-0.44,0.226-0.875,0.337-1.304c0.1-0.436,0.308-0.816,0.453-1.221
			c0.025-0.062,0.049-0.122,0.074-0.184c0.044,0.347,0.093,0.549,0.093,0.549s0.144-0.434,0.433-1.144
			c0.296-0.704,0.73-1.701,1.41-2.703c0.283-0.446,0.657-0.853,1.044-1.248c0.169-0.156,0.341-0.299,0.513-0.442
			c0.386-0.3,0.794-0.571,1.244-0.772c0.145-0.067,0.309-0.098,0.459-0.156l0.17-0.062l0.043-0.007l0.156-0.025l0.629-0.1
			c0.108,0.036,0.202,0.058,0.3,0.066c0.079-0.012,0.229,0.032,0.38,0.081c0.146,0.051,0.292,0.063,0.444,0.126
			c0.301,0.152,0.613,0.237,0.912,0.457l0.462,0.272l0.445,0.341c0.303,0.211,0.584,0.482,0.871,0.732
			c0.561,0.522,1.093,1.09,1.584,1.67C543.875,225.251,543.969,225.375,544.069,225.498z M543.335,220.541
			c-0.057-0.047-0.106-0.1-0.167-0.144l0,0c0.05,0.006,0.1,0.01,0.143,0.016C543.318,220.455,543.327,220.499,543.335,220.541z
			 M543.139,219.522c0.058,0.285,0.107,0.555,0.16,0.831c-0.079-0.022-0.174-0.046-0.276-0.071l-0.442-0.349l-0.657-0.411
			c-0.423-0.284-0.954-0.467-1.445-0.674c-0.252-0.097-0.544-0.14-0.815-0.201c-0.27-0.059-0.54-0.116-0.896-0.104
			c-0.332-0.002-0.667,0.009-0.985,0.037l-0.616,0.163l-0.153,0.041l-0.076,0.02l-0.198,0.055l-0.044,0.02l-0.349,0.162
			c-0.229,0.113-0.46,0.215-0.672,0.348c-0.86,0.527-1.544,1.216-2.06,1.924c-0.487,0.727-0.84,1.455-1.045,2.146
			c-0.101,0.29-0.167,0.57-0.227,0.843c-0.096,0.133-0.193,0.265-0.276,0.409c-0.243,0.37-0.491,0.745-0.743,1.127
			c-0.192,0.41-0.387,0.825-0.585,1.247c-0.182,0.427-0.431,0.843-0.565,1.298c-0.145,0.452-0.292,0.91-0.441,1.372
			c-0.343,0.915-0.504,1.901-0.692,2.898c-0.094,0.499-0.19,1.003-0.285,1.51c-0.048,0.493-0.096,0.99-0.144,1.49
			c-0.049,0.5-0.097,1.003-0.146,1.509l-0.065,0.803l0.009,0.788c0.013,1.054,0.027,2.116,0.041,3.183
			c0.131,1.059,0.263,2.122,0.395,3.186c0.052,0.535,0.18,1.055,0.315,1.573l0.385,1.556c0.215,1.048,0.607,2.037,0.957,3.029
			c0.179,0.495,0.357,0.987,0.534,1.478c0.224,0.47,0.446,0.938,0.667,1.403c0.436,0.933,0.868,1.852,1.399,2.699
			c0.958,1.752,2.088,3.317,3.185,4.766c0.579,0.702,1.11,1.409,1.68,2.046c0.581,0.625,1.143,1.228,1.682,1.807
			c0.569,0.548,1.115,1.072,1.634,1.571c0.532,0.484,1.063,0.915,1.546,1.334c0.988,0.814,1.867,1.498,2.616,2.028
			c0.733,0.55,1.358,0.914,1.77,1.178c0.142,0.084,0.253,0.15,0.349,0.207c-3.339-0.712-7.938,1.518-9.872,2.582
			c-6.726-2.896-13.394-3.557-17.145-1.667c-1.177,0.593-2.047,1.429-2.582,2.447c-9.454-1.498-18.034,1.496-22.868,8.179
			c-3.599,4.975-4.409,10.995-2.453,16.837c-6.046-3.118-22.215-11.866-31.214-20.611l-1.115-1.123
			c-0.461-0.482-0.906-0.963-1.316-1.443c-6.419-7.515-2.381-14.584,1.894-22.068c1.983-3.472,3.856-6.751,4.673-10.102
			c0.868-3.559,1.174-7.344,1.499-11.353c0.616-7.605,1.262-15.464,5.783-22.979c1.773,1.41,3.278,2.437,4.351,3.172
			c1.288,0.871,1.994,1.304,1.994,1.304s-3.437-4.276-5.445-6.333c-1.418-1.455-3.462-3.437-3.462-3.437s4.506,1.602,5.432,1.975
			c0.934,0.35,1.888,0.634,2.833,0.954l2.873,0.824l1.634,0.468l-0.202-1.817c-0.14-1.26-0.123-2.692-0.06-4.042
			c0.077-1.369,0.272-2.728,0.529-4.069c0.292-1.334,0.651-2.651,1.12-3.926c0.232-0.639,0.459-1.278,0.758-1.887l0.419-0.926
			c0.151-0.303,0.325-0.594,0.485-0.892l0.489-0.889l0.559-0.847c0.367-0.568,0.744-1.129,1.185-1.643l0.632-0.793l0.7-0.918
			l0.643-0.861l0.321-0.436l0.303-0.53c0.862-1.409,1.465-2.862,1.882-4.373c0.147-0.77,0.399-1.527,0.446-2.308
			c0.044-0.777,0.165-1.561,0.115-2.333c-0.061-0.77-0.081-1.548-0.186-2.307l-0.436-2.249l-0.664-2.165
			c-0.21-0.726-0.549-1.392-0.83-2.085l-0.45-1.023l-0.525-0.979c-0.361-0.645-0.677-1.318-1.074-1.937
			c-0.794-1.238-1.543-2.502-2.455-3.644c-0.849-1.189-1.792-2.297-2.729-3.404c-0.428-0.532-0.89-1.033-1.36-1.527
			c1.886,1.414,3.725,2.785,5.433,4.176c4.325,3.462,7.576,7.512,9.628,11.81l0.395,0.836l0.183,0.38l0.164,0.391
			c0.105,0.262,0.231,0.513,0.346,0.768l0.301,0.778c0.419,1.027,0.731,2.075,0.981,3.115c0.484,2.086,0.682,4.149,0.695,6.1
			c-0.006,3.91-0.615,7.353-1.314,10.125c-0.705,2.778-1.458,4.922-2.024,6.361c-0.566,1.44-0.934,2.183-0.934,2.183
			s0.452-0.694,1.186-2.067c0.498-0.944,1.143-2.213,1.823-3.799C503.771,196.504,539.828,203.19,543.139,219.522z M570.415,134.309
			c-4.724,3.831-6.181,12.203-7.869,21.898c-3.05,17.525-6.851,39.274-30.825,46.88c-0.35-0.192-0.703-0.381-1.058-0.567
			c4.093-4.206,12.945-15.663,14.526-37.27c1.234-16.865,2.751-30.225,9.965-36c2.891-2.315,6.764-3.442,11.724-3.429
			c0.381,0.008,0.761,0.013,1.146,0.03c0.184,0.007,0.374,0.02,0.562,0.029c0.626,0.035,1.256,0.077,1.892,0.135
			c0.759,0.075,1.525,0.157,2.327,0.277l0.002-0.015c1.658,0.22,3.347,0.513,5.07,0.887
			C577.266,128.102,575.503,130.184,570.415,134.309z"/>
	</g>
</g>
</svg>
